Radley.ufo
<glyph name="numbersign" format="1">
  <advance width="1136"/>
  <unicode hex="0023"/>
  <outline>
    <contour>
      <point x="643" y="390" type="line"/>
      <point x="623" y="322"/>
      <point x="486" y="-110"/>
      <point x="486" y="-150" type="curve" smooth="yes"/>
      <point x="486" y="-184"/>
      <point x="511" y="-239"/>
      <point x="551" y="-239" type="curve" smooth="yes"/>
      <point x="606" y="-239"/>
      <point x="632" y="-198"/>
      <point x="643" y="-149" type="curve" smooth="yes"/>
      <point x="682" y="31"/>
      <point x="715" y="211"/>
      <point x="760" y="390" type="curve"/>
      <point x="781" y="390"/>
      <point x="833" y="384"/>
      <point x="884" y="384" type="curve" smooth="yes"/>
      <point x="953" y="384"/>
      <point x="1021" y="394"/>
      <point x="1021" y="441" type="curve" smooth="yes"/>
      <point x="1021" y="494"/>
      <point x="945" y="504"/>
      <point x="878" y="504" type="curve" smooth="yes"/>
      <point x="841" y="504"/>
      <point x="806" y="501"/>
      <point x="788" y="501" type="curve"/>
      <point x="836" y="674" type="line"/>
      <point x="858" y="674"/>
      <point x="901" y="669"/>
      <point x="944" y="669" type="curve" smooth="yes"/>
      <point x="1009" y="669"/>
      <point x="1075" y="680"/>
      <point x="1075" y="732" type="curve" smooth="yes"/>
      <point x="1075" y="779"/>
      <point x="1009" y="787"/>
      <point x="949" y="787" type="curve" smooth="yes"/>
      <point x="916" y="787"/>
      <point x="886" y="785"/>
      <point x="869" y="785" type="curve"/>
      <point x="887" y="843"/>
      <point x="1023" y="1241"/>
      <point x="1023" y="1280" type="curve" smooth="yes"/>
      <point x="1023" y="1333"/>
      <point x="1002" y="1362"/>
      <point x="946" y="1362" type="curve" smooth="yes"/>
      <point x="880" y="1362"/>
      <point x="864" y="1333"/>
      <point x="855" y="1275" type="curve" smooth="yes"/>
      <point x="830" y="1111"/>
      <point x="786" y="946"/>
      <point x="747" y="785" type="curve"/>
      <point x="478" y="785" type="line"/>
      <point x="495" y="840"/>
      <point x="641" y="1249"/>
      <point x="641" y="1280" type="curve" smooth="yes"/>
      <point x="641" y="1332"/>
      <point x="635" y="1362"/>
      <point x="574" y="1362" type="curve" smooth="yes"/>
      <point x="546" y="1362"/>
      <point x="494" y="1352"/>
      <point x="490" y="1316" type="curve" smooth="yes"/>
      <point x="470" y="1134"/>
      <point x="412" y="961"/>
      <point x="362" y="785" type="curve"/>
      <point x="343" y="785"/>
      <point x="303" y="789"/>
      <point x="260" y="789" type="curve" smooth="yes"/>
      <point x="194" y="789"/>
      <point x="122" y="779"/>
      <point x="122" y="731" type="curve" smooth="yes"/>
      <point x="122" y="680"/>
      <point x="182" y="670"/>
      <point x="240" y="670" type="curve" smooth="yes"/>
      <point x="275" y="670"/>
      <point x="310" y="674"/>
      <point x="331" y="674" type="curve"/>
      <point x="283" y="501" type="line"/>
      <point x="265" y="501"/>
      <point x="230" y="504"/>
      <point x="195" y="504" type="curve" smooth="yes"/>
      <point x="133" y="504"/>
      <point x="67" y="495"/>
      <point x="67" y="447" type="curve" smooth="yes"/>
      <point x="67" y="396"/>
      <point x="123" y="387"/>
      <point x="176" y="387" type="curve" smooth="yes"/>
      <point x="205" y="387"/>
      <point x="233" y="390"/>
      <point x="252" y="390" type="curve"/>
      <point x="232" y="320"/>
      <point x="104" y="-108"/>
      <point x="104" y="-150" type="curve" smooth="yes"/>
      <point x="104" y="-184"/>
      <point x="129" y="-239"/>
      <point x="169" y="-239" type="curve" smooth="yes"/>
      <point x="223" y="-239"/>
      <point x="242" y="-198"/>
      <point x="252" y="-151" type="curve" smooth="yes"/>
      <point x="292" y="29"/>
      <point x="325" y="210"/>
      <point x="370" y="390" type="curve"/>
    </contour>
    <contour>
      <point x="719" y="674" type="line"/>
      <point x="674" y="501" type="line"/>
      <point x="398" y="501" type="line"/>
      <point x="445" y="674" type="line"/>
    </contour>
  </outline>
</glyph>
<glyph name="hyphen" format="1">
  <advance width="772"/>
  <unicode hex="002D"/>
  <outline>
    <contour>
      <point x="691" y="402" type="line"/>
      <point x="691" y="530" type="line"/>
      <point x="89" y="530" type="line"/>
      <point x="89" y="402" type="line"/>
    </contour>
  </outline>
</glyph>
<glyph name="two" format="1">
  <advance width="921"/>
  <unicode hex="0032"/>
  <outline>
    <contour>
      <point x="351" y="146" type="line"/>
      <point x="522" y="323" type="line" smooth="yes"/>
      <point x="662" y="468"/>
      <point x="728" y="582"/>
      <point x="728" y="680" type="curve" smooth="yes"/>
      <point x="728" y="834"/>
      <point x="596" y="927"/>
      <point x="444" y="927" type="curve" smooth="yes"/>
      <point x="315" y="927"/>
      <point x="184" y="887"/>
      <point x="106" y="813" type="curve"/>
      <point x="128" y="740" type="line"/>
      <point x="175" y="774"/>
      <point x="274" y="807"/>
      <point x="362" y="807" type="curve" smooth="yes"/>
      <point x="480" y="807"/>
      <point x="520" y="744"/>
      <point x="520" y="664" type="curve" smooth="yes"/>
      <point x="520" y="564"/>
      <point x="456" y="436"/>
      <point x="404" y="375" type="curve" smooth="yes"/>
      <point x="121" y="39" type="line"/>
      <point x="132" y="0" type="line"/>
      <point x="757" y="0" type="line"/>
      <point x="807" y="313" type="line"/>
      <point x="780" y="316" type="line"/>
      <point x="691" y="316"/>
      <point x="773" y="152"/>
      <point x="589" y="146" type="curve"/>
    </contour>
  </outline>
</glyph>
<glyph name="six" format="1">
  <advance width="1035"/>
  <unicode hex="0036"/>
  <outline>
    <contour>
      <point x="662" y="1244" type="curve"/>
      <point x="325" y="1196"/>
      <point x="93" y="785"/>
      <point x="93" y="444" type="curve" smooth="yes"/>
      <point x="93" y="192"/>
      <point x="219" y="-20"/>
      <point x="526" y="-20" type="curve" smooth="yes"/>
      <point x="745" y="-20"/>
      <point x="954" y="144"/>
      <point x="954" y="386" type="curve" smooth="yes"/>
      <point x="954" y="639"/>
      <point x="781" y="780"/>
      <point x="557" y="780" type="curve" smooth="yes"/>
      <point x="484" y="780"/>
      <point x="406" y="764"/>
      <point x="330" y="728" type="curve"/>
      <point x="383" y="949"/>
      <point x="557" y="1135"/>
      <point x="706" y="1194" type="curve" smooth="yes"/>
      <point x="725" y="1201"/>
      <point x="726" y="1208"/>
      <point x="726" y="1220" type="curve" smooth="yes"/>
      <point x="726" y="1243"/>
      <point x="720" y="1248"/>
      <point x="699" y="1248" type="curve" smooth="yes"/>
      <point x="687" y="1248"/>
      <point x="673" y="1247"/>
    </contour>
    <contour>
      <point x="754" y="393" type="curve" smooth="yes"/>
      <point x="754" y="165"/>
      <point x="657" y="49"/>
      <point x="545" y="49" type="curve" smooth="yes"/>
      <point x="404" y="49"/>
      <point x="297" y="183"/>
      <point x="297" y="456" type="curve" smooth="yes"/>
      <point x="297" y="522"/>
      <point x="305" y="577"/>
      <point x="321" y="659" type="curve"/>
      <point x="385" y="696"/>
      <point x="448" y="714"/>
      <point x="505" y="714" type="curve" smooth="yes"/>
      <point x="654" y="714"/>
      <point x="754" y="612"/>
    </contour>
  </outline>
</glyph>
<glyph name="nine" format="1">
  <advance width="1084"/>
  <unicode hex="0039"/>
  <outline>
    <contour>
      <point x="380" y="-338" type="curve"/>
      <point x="717" y="-290"/>
      <point x="949" y="121"/>
      <point x="949" y="462" type="curve" smooth="yes"/>
      <point x="949" y="714"/>
      <point x="823" y="926"/>
      <point x="516" y="926" type="curve" smooth="yes"/>
      <point x="297" y="926"/>
      <point x="88" y="762"/>
      <point x="88" y="520" type="curve" smooth="yes"/>
      <point x="88" y="267"/>
      <point x="261" y="126"/>
      <point x="485" y="126" type="curve" smooth="yes"/>
      <point x="558" y="126"/>
      <point x="636" y="142"/>
      <point x="712" y="178" type="curve"/>
      <point x="659" y="-44"/>
      <point x="485" y="-230"/>
      <point x="336" y="-288" type="curve" smooth="yes"/>
      <point x="317" y="-296"/>
      <point x="316" y="-302"/>
      <point x="316" y="-314" type="curve" smooth="yes"/>
      <point x="316" y="-337"/>
      <point x="322" y="-342"/>
      <point x="343" y="-342" type="curve" smooth="yes"/>
      <point x="355" y="-342"/>
      <point x="369" y="-341"/>
    </contour>
    <contour>
      <point x="288" y="513" type="curve" smooth="yes"/>
      <point x="288" y="741"/>
      <point x="385" y="857"/>
      <point x="497" y="857" type="curve" smooth="yes"/>
      <point x="638" y="857"/>
      <point x="745" y="723"/>
      <point x="745" y="450" type="curve" smooth="yes"/>
      <point x="745" y="384"/>
      <point x="737" y="329"/>
      <point x="721" y="247" type="curve"/>
      <point x="657" y="210"/>
      <point x="594" y="192"/>
      <point x="537" y="192" type="curve" smooth="yes"/>
      <point x="388" y="192"/>
      <point x="288" y="294"/>
    </contour>
  </outline>
</glyph>
<glyph name="E" format="1">
  <advance width="1386"/>
  <unicode hex="0045"/>
  <outline>
    <contour>
      <point x="688" y="1302" type="move" name="top"/>
    </contour>
    <contour>
      <point x="1246" y="342" type="line"/>
      <point x="1212" y="306"/>
      <point x="1196" y="258"/>
      <point x="1175" y="215" type="curve" smooth="yes"/>
      <point x="1109" y="84"/>
      <point x="952" y="70"/>
      <point x="822" y="70" type="curve" smooth="yes"/>
      <point x="724" y="70" type="line" smooth="yes"/>
      <point x="573" y="70"/>
      <point x="496" y="88"/>
      <point x="496" y="304" type="curve" smooth="yes"/>
      <point x="496" y="641" type="line"/>
      <point x="823" y="641" type="line" smooth="yes"/>
      <point x="942" y="641"/>
      <point x="999" y="561"/>
      <point x="1037" y="459" type="curve"/>
      <point x="1094" y="462" type="line"/>
      <point x="1094" y="891" type="line"/>
      <point x="1037" y="891" type="line"/>
      <point x="1022" y="864" type="line" smooth="yes"/>
      <point x="958" y="748"/>
      <point x="943" y="717"/>
      <point x="784" y="717" type="curve" smooth="yes"/>
      <point x="496" y="717" type="line"/>
      <point x="496" y="1123" type="line" smooth="yes"/>
      <point x="496" y="1157"/>
      <point x="497" y="1192"/>
      <point x="500" y="1226" type="curve"/>
      <point x="566" y="1234"/>
      <point x="629" y="1235"/>
      <point x="702" y="1235" type="curve" smooth="yes"/>
      <point x="798" y="1235"/>
      <point x="948" y="1235"/>
      <point x="1033" y="1207" type="curve" smooth="yes"/>
      <point x="1129" y="1175"/>
      <point x="1120" y="1057"/>
      <point x="1183" y="995" type="curve"/>
      <point x="1235" y="997" type="line"/>
      <point x="1235" y="1308" type="line"/>
      <point x="1223" y="1311"/>
      <point x="1210" y="1312"/>
      <point x="1198" y="1312" type="curve" smooth="yes"/>
      <point x="1162" y="1312"/>
      <point x="1126" y="1302"/>
      <point x="1090" y="1302" type="curve" smooth="yes"/>
      <point x="70" y="1302" type="line"/>
      <point x="68" y="1251" type="line"/>
      <point x="223" y="1190"/>
      <point x="281" y="1225"/>
      <point x="281" y="1024" type="curve" smooth="yes"/>
      <point x="281" y="267" type="line" smooth="yes"/>
      <point x="281" y="26"/>
      <point x="212" y="128"/>
      <point x="68" y="49" type="curve"/>
      <point x="70" y="0" type="line"/>
      <point x="1096" y="0" type="line" smooth="yes"/>
      <point x="1135" y="0"/>
      <point x="1172" y="-12"/>
      <point x="1211" y="-12" type="curve" smooth="yes"/>
      <point x="1222" y="-12"/>
      <point x="1232" y="-11"/>
      <point x="1243" y="-9" type="curve"/>
      <point x="1309" y="342" type="line"/>
    </contour>
  </outline>
</glyph>
<glyph name="H" format="1">
  <advance width="1705"/>
  <unicode hex="0048"/>
  <outline>
    <contour>
      <point x="1209" y="625" type="line"/>
      <point x="1209" y="252" type="line" smooth="yes"/>
      <point x="1209" y="38"/>
      <point x="1130" y="119"/>
      <point x="1006" y="52" type="curve"/>
      <point x="1008" y="0" type="line"/>
      <point x="1637" y="0" type="line"/>
      <point x="1637" y="52" type="line"/>
      <point x="1479" y="107"/>
      <point x="1424" y="55"/>
      <point x="1424" y="267" type="curve" smooth="yes"/>
      <point x="1424" y="1030" type="line" smooth="yes"/>
      <point x="1424" y="1233"/>
      <point x="1482" y="1195"/>
      <point x="1637" y="1250" type="curve"/>
      <point x="1635" y="1302" type="line"/>
      <point x="1008" y="1302" type="line"/>
      <point x="1006" y="1251" type="line"/>
      <point x="1134" y="1188"/>
      <point x="1209" y="1241"/>
      <point x="1209" y="1047" type="curve" smooth="yes"/>
      <point x="1209" y="712" type="line"/>
      <point x="495" y="712" type="line"/>
      <point x="495" y="1037" type="line" smooth="yes"/>
      <point x="495" y="1253"/>
      <point x="575" y="1186"/>
      <point x="716" y="1250" type="curve"/>
      <point x="714" y="1302" type="line"/>
      <point x="71" y="1302" type="line"/>
      <point x="69" y="1251" type="line"/>
      <point x="210" y="1188"/>
      <point x="280" y="1245"/>
      <point x="280" y="1038" type="curve" smooth="yes"/>
      <point x="280" y="265" type="line" smooth="yes"/>
      <point x="280" y="43"/>
      <point x="219" y="116"/>
      <point x="68" y="52" type="curve"/>
      <point x="68" y="35"/>
      <point x="70" y="17"/>
      <point x="71" y="0" type="curve"/>
      <point x="715" y="0" type="line"/>
      <point x="717" y="52" type="line"/>
      <point x="574" y="110"/>
      <point x="495" y="42"/>
      <point x="495" y="255" type="curve" smooth="yes"/>
      <point x="495" y="625" type="line"/>
    </contour>
  </outline>
</glyph>
<glyph name="X" format="1">
  <advance width="1463"/>
  <unicode hex="0058"/>
  <outline>
    <contour>
      <point x="1053" y="1029" type="line" smooth="yes"/>
      <point x="1082" y="1066"/>
      <point x="1110" y="1098"/>
      <point x="1136" y="1126" type="curve" smooth="yes"/>
      <point x="1211" y="1208"/>
      <point x="1334" y="1233"/>
      <point x="1376" y="1250" type="curve"/>
      <point x="1376" y="1267"/>
      <point x="1376" y="1285"/>
      <point x="1374" y="1302" type="curve"/>
      <point x="861" y="1302" type="line"/>
      <point x="859" y="1291"/>
      <point x="859" y="1281"/>
      <point x="859" y="1273" type="curve" smooth="yes"/>
      <point x="859" y="1263"/>
      <point x="859" y="1254"/>
      <point x="861" y="1246" type="curve"/>
      <point x="951" y="1228"/>
      <point x="1007" y="1183"/>
      <point x="1007" y="1130" type="curve" smooth="yes"/>
      <point x="1007" y="1096"/>
      <point x="995" y="1076"/>
      <point x="945" y="1014" type="curve" smooth="yes"/>
      <point x="762" y="788" type="line"/>
      <point x="529" y="1095" type="line"/>
      <point x="519" y="1115"/>
      <point x="512" y="1129"/>
      <point x="512" y="1144" type="curve" smooth="yes"/>
      <point x="512" y="1198"/>
      <point x="590" y="1234"/>
      <point x="667" y="1250" type="curve"/>
      <point x="667" y="1267"/>
      <point x="666" y="1285"/>
      <point x="665" y="1302" type="curve"/>
      <point x="23" y="1302" type="line"/>
      <point x="21" y="1279"/>
      <point x="21" y="1262"/>
      <point x="21" y="1246" type="curve"/>
      <point x="89" y="1220"/>
      <point x="190" y="1206"/>
      <point x="273" y="1097" type="curve" smooth="yes"/>
      <point x="632" y="628" type="line"/>
      <point x="319" y="252" type="line" smooth="yes"/>
      <point x="292" y="219"/>
      <point x="267" y="189"/>
      <point x="245" y="165" type="curve" smooth="yes"/>
      <point x="179" y="94"/>
      <point x="72" y="73"/>
      <point x="18" y="52" type="curve"/>
      <point x="18" y="34"/>
      <point x="18" y="17"/>
      <point x="20" y="0" type="curve"/>
      <point x="541" y="0" type="line"/>
      <point x="542" y="11"/>
      <point x="542" y="21"/>
      <point x="542" y="30" type="curve" smooth="yes"/>
      <point x="542" y="39"/>
      <point x="542" y="48"/>
      <point x="541" y="57" type="curve"/>
      <point x="460" y="73"/>
      <point x="377" y="94"/>
      <point x="377" y="144" type="curve" smooth="yes"/>
      <point x="377" y="182"/>
      <point x="417" y="246"/>
      <point x="456" y="294" type="curve" smooth="yes"/>
      <point x="679" y="565" type="line"/>
      <point x="942" y="216" type="line" smooth="yes"/>
      <point x="956" y="197"/>
      <point x="962" y="171"/>
      <point x="962" y="156" type="curve" smooth="yes"/>
      <point x="962" y="98"/>
      <point x="881" y="69"/>
      <point x="806" y="52" type="curve"/>
      <point x="806" y="34"/>
      <point x="806" y="17"/>
      <point x="808" y="0" type="curve"/>
      <point x="1460" y="0" type="line"/>
      <point x="1461" y="19"/>
      <point x="1462" y="36"/>
      <point x="1462" y="52" type="curve"/>
      <point x="1444" y="59"/>
      <point x="1403" y="69"/>
      <point x="1372" y="78" type="curve" smooth="yes"/>
      <point x="1292" y="100"/>
      <point x="1257" y="137"/>
      <point x="1182" y="236" type="curve" smooth="yes"/>
      <point x="811" y="725" type="line"/>
    </contour>
  </outline>
</glyph>
<glyph name="bracketright" format="1">
  <advance width="664"/>
  <unicode hex="005D"/>
  <outline>
    <contour>
      <point x="0" y="-214" type="curve" smooth="yes"/>
      <point x="142" y="-214"/>
      <point x="284" y="-199"/>
      <point x="426" y="-199" type="curve" smooth="yes"/>
      <point x="489" y="-199"/>
      <point x="505" y="-150"/>
      <point x="505" y="-48" type="curve" smooth="yes"/>
      <point x="505" y="57"/>
      <point x="488" y="219"/>
      <point x="488" y="440" type="curve" smooth="yes"/>
      <point x="488" y="776"/>
      <point x="496" y="1113"/>
      <point x="496" y="1449" type="curve" smooth="yes"/>
      <point x="496" y="1485"/>
      <point x="443" y="1524"/>
      <point x="409" y="1524" type="curve" smooth="yes"/>
      <point x="257" y="1524"/>
      <point x="104" y="1529"/>
      <point x="-48" y="1529" type="curve" smooth="yes"/>
      <point x="-94" y="1529"/>
      <point x="-147" y="1509"/>
      <point x="-147" y="1455" type="curve" smooth="yes"/>
      <point x="-147" y="1411"/>
      <point x="-108" y="1380"/>
      <point x="-66" y="1380" type="curve" smooth="yes"/>
      <point x="340" y="1380" type="line"/>
      <point x="341" y="1097"/>
      <point x="358" y="815"/>
      <point x="358" y="532" type="curve" smooth="yes"/>
      <point x="358" y="334"/>
      <point x="356" y="135"/>
      <point x="353" y="-63" type="curve"/>
      <point x="208" y="-63" type="line" smooth="yes"/>
      <point x="158" y="-63"/>
      <point x="109" y="-54"/>
      <point x="59" y="-54" type="curve" smooth="yes"/>
      <point x="-2" y="-54"/>
      <point x="-88" y="-64"/>
      <point x="-88" y="-143" type="curve" smooth="yes"/>
      <point x="-88" y="-200"/>
      <point x="-50" y="-214"/>
    </contour>
  </outline>
</glyph>
<glyph name="grave" format="1">
  <advance width="968"/>
  <unicode hex="0060"/>
  <outline>
    <contour>
      <point x="451" y="900" type="move" name="_top"/>
    </contour>
    <contour>
      <point x="252" y="1442" type="curve" smooth="yes"/>
      <point x="354" y="1349"/>
      <point x="539" y="1177"/>
      <point x="608" y="1116" type="curve" smooth="yes"/>
      <point x="624" y="1102"/>
      <point x="638" y="1096"/>
      <point x="648" y="1096" type="curve" smooth="yes"/>
      <point x="663" y="1096"/>
      <point x="671" y="1107"/>
      <point x="671" y="1122" type="curve" smooth="yes"/>
      <point x="671" y="1131"/>
      <point x="667" y="1142"/>
      <point x="660" y="1152" type="curve" smooth="yes"/>
      <point x="577" y="1262"/>
      <point x="438" y="1449"/>
      <point x="373" y="1536" type="curve" smooth="yes"/>
      <point x="355" y="1560"/>
      <point x="333" y="1570"/>
      <point x="312" y="1570" type="curve" smooth="yes"/>
      <point x="270" y="1570"/>
      <point x="231" y="1528"/>
      <point x="231" y="1488" type="curve" smooth="yes"/>
      <point x="231" y="1471"/>
      <point x="237" y="1455"/>
    </contour>
  </outline>
</glyph>
<glyph name="c" format="1">
  <advance width="980"/>
  <unicode hex="0063"/>
  <outline>
    <contour>
      <point x="847" y="211" type="line"/>
      <point x="768" y="149"/>
      <point x="703" y="120"/>
      <point x="582" y="120" type="curve" smooth="yes"/>
      <point x="375" y="120"/>
      <point x="265" y="298"/>
      <point x="265" y="502" type="curve" smooth="yes"/>
      <point x="265" y="734"/>
      <point x="406" y="858"/>
      <point x="557" y="852" type="curve" smooth="yes"/>
      <point x="784" y="843"/>
      <point x="645" y="642"/>
      <point x="795" y="642" type="curve" smooth="yes"/>
      <point x="829" y="642"/>
      <point x="887" y="661"/>
      <point x="886" y="730" type="curve" smooth="yes"/>
      <point x="884" y="851"/>
      <point x="748" y="926"/>
      <point x="581" y="926" type="curve" smooth="yes"/>
      <point x="284" y="926"/>
      <point x="82" y="713"/>
      <point x="82" y="448" type="curve" smooth="yes"/>
      <point x="82" y="203"/>
      <point x="239" y="-20"/>
      <point x="525" y="-20" type="curve" smooth="yes"/>
      <point x="678" y="-20"/>
      <point x="836" y="49"/>
      <point x="879" y="188" type="curve"/>
    </contour>
    <contour>
      <point x="486" y="900" type="move" name="top"/>
    </contour>
  </outline>
</glyph>
<glyph name="d" format="1">
  <advance width="1200"/>
  <unicode hex="0064"/>
  <outline>
    <contour>
      <point x="822" y="222" type="line"/>
      <point x="771" y="154"/>
      <point x="692" y="99"/>
      <point x="585" y="99" type="curve" smooth="yes"/>
      <point x="385" y="99"/>
      <point x="289" y="296"/>
      <point x="289" y="477" type="curve" smooth="yes"/>
      <point x="289" y="671"/>
      <point x="393" y="846"/>
      <point x="557" y="846" type="curve" smooth="yes"/>
      <point x="621" y="846"/>
      <point x="684" y="818"/>
      <point x="736" y="772" type="curve" smooth="yes"/>
      <point x="811" y="706"/>
      <point x="822" y="625"/>
      <point x="822" y="510" type="curve" smooth="yes"/>
    </contour>
    <contour>
      <point x="822" y="849" type="line"/>
      <point x="737" y="889"/>
      <point x="657" y="923"/>
      <point x="567" y="923" type="curve" smooth="yes"/>
      <point x="302" y="923"/>
      <point x="103" y="714"/>
      <point x="103" y="414" type="curve" smooth="yes"/>
      <point x="103" y="153"/>
      <point x="284" y="-20"/>
      <point x="511" y="-20" type="curve" smooth="yes"/>
      <point x="631" y="-20"/>
      <point x="733" y="35"/>
      <point x="827" y="143" type="curve"/>
      <point x="836" y="-12" type="line"/>
      <point x="903" y="-12" type="line"/>
      <point x="1170" y="32" type="line"/>
      <point x="1170" y="87" type="line"/>
      <point x="1112" y="87"/>
      <point x="1008" y="109"/>
      <point x="1008" y="199" type="curve" smooth="yes"/>
      <point x="1008" y="1376" type="line"/>
      <point x="936" y="1369" type="line"/>
      <point x="654" y="1301" type="line"/>
      <point x="652" y="1266" type="line"/>
      <point x="652" y="1266"/>
      <point x="793" y="1220"/>
      <point x="822" y="1175" type="curve"/>
    </contour>
  </outline>
</glyph>
<glyph name="e" format="1">
  <advance width="963"/>
  <unicode hex="0065"/>
  <outline>
    <contour>
      <point x="263" y="575" type="line"/>
      <point x="280" y="725"/>
      <point x="366" y="859"/>
      <point x="500" y="859" type="curve" smooth="yes"/>
      <point x="621" y="859"/>
      <point x="684" y="761"/>
      <point x="693" y="606" type="curve"/>
      <point x="672" y="596"/>
      <point x="646" y="591"/>
      <point x="619" y="590" type="curve" smooth="yes"/>
    </contour>
    <contour>
      <point x="891" y="526" type="line"/>
      <point x="891" y="535" type="line" smooth="yes"/>
      <point x="891" y="562"/>
      <point x="887" y="591"/>
      <point x="880" y="620" type="curve"/>
      <point x="854" y="801"/>
      <point x="716" y="926"/>
      <point x="523" y="926" type="curve" smooth="yes"/>
      <point x="291" y="926"/>
      <point x="82" y="734"/>
      <point x="82" y="447" type="curve" smooth="yes"/>
      <point x="82" y="169"/>
      <point x="267" y="-20"/>
      <point x="522" y="-20" type="curve" smooth="yes"/>
      <point x="652" y="-20"/>
      <point x="819" y="44"/>
      <point x="869" y="165" type="curve"/>
      <point x="840" y="193" type="line"/>
      <point x="762" y="145"/>
      <point x="683" y="121"/>
      <point x="597" y="121" type="curve" smooth="yes"/>
      <point x="414" y="121"/>
      <point x="258" y="235"/>
      <point x="258" y="497" type="curve" smooth="yes"/>
      <point x="258" y="506"/>
      <point x="258" y="516"/>
      <point x="259" y="526" type="curve"/>
    </contour>
    <contour>
      <point x="522" y="900" type="move" name="top"/>
    </contour>
  </outline>
</glyph>
<glyph name="f" format="1">
  <advance width="754"/>
  <unicode hex="0066"/>
  <outline>
    <contour>
      <point x="685" y="824" type="line"/>
      <point x="683" y="899" type="line"/>
      <point x="453" y="899" type="line"/>
      <point x="453" y="1021" type="line" smooth="yes"/>
      <point x="453" y="1249"/>
      <point x="504" y="1311"/>
      <point x="590" y="1311" type="curve" smooth="yes"/>
      <point x="695" y="1311"/>
      <point x="663" y="1140"/>
      <point x="771" y="1140" type="curve" smooth="yes"/>
      <point x="831" y="1140"/>
      <point x="865" y="1179"/>
      <point x="865" y="1230" type="curve" smooth="yes"/>
      <point x="865" y="1323"/>
      <point x="756" y="1374"/>
      <point x="623" y="1374" type="curve" smooth="yes"/>
      <point x="397" y="1374"/>
      <point x="268" y="1231"/>
      <point x="263" y="971" type="curve" smooth="yes"/>
      <point x="262" y="901"/>
      <point x="242" y="899"/>
      <point x="178" y="899" type="curve" smooth="yes"/>
      <point x="109" y="899" type="line"/>
      <point x="111" y="824" type="line"/>
      <point x="267" y="824" type="line"/>
      <point x="267" y="215" type="line" smooth="yes"/>
      <point x="267" y="75"/>
      <point x="205" y="83"/>
      <point x="87" y="50" type="curve"/>
      <point x="87" y="35"/>
      <point x="88" y="19"/>
      <point x="89" y="0" type="curve"/>
      <point x="650" y="0" type="line"/>
      <point x="651" y="19"/>
      <point x="651" y="35"/>
      <point x="651" y="50" type="curve"/>
      <point x="436" y="60"/>
      <point x="453" y="198"/>
      <point x="453" y="259" type="curve" smooth="yes"/>
      <point x="453" y="824" type="line"/>
    </contour>
  </outline>
</glyph>
<glyph name="m" format="1">
  <advance width="1757"/>
  <unicode hex="006D"/>
  <outline>
    <contour>
      <point x="391" y="678" type="line"/>
      <point x="457" y="753"/>
      <point x="534" y="818"/>
      <point x="638" y="818" type="curve" smooth="yes"/>
      <point x="769" y="818"/>
      <point x="804" y="720"/>
      <point x="804" y="577" type="curve" smooth="yes"/>
      <point x="804" y="229" type="line" smooth="yes"/>
      <point x="804" y="70"/>
      <point x="678" y="58"/>
      <point x="641" y="50" type="curve"/>
      <point x="641" y="34"/>
      <point x="643" y="0"/>
      <point x="643" y="0" type="curve"/>
      <point x="1143" y="0" type="line"/>
      <point x="1143" y="0"/>
      <point x="1145" y="33"/>
      <point x="1145" y="50" type="curve"/>
      <point x="1095" y="66"/>
      <point x="1008" y="78"/>
      <point x="997" y="142" type="curve" smooth="yes"/>
      <point x="992" y="168"/>
      <point x="991" y="198"/>
      <point x="991" y="230" type="curve" smooth="yes"/>
      <point x="991" y="472" type="line" smooth="yes"/>
      <point x="991" y="551"/>
      <point x="991" y="625"/>
      <point x="985" y="694" type="curve"/>
      <point x="1039" y="753"/>
      <point x="1126" y="819"/>
      <point x="1216" y="819" type="curve" smooth="yes"/>
      <point x="1335" y="819"/>
      <point x="1401" y="746"/>
      <point x="1401" y="622" type="curve" smooth="yes"/>
      <point x="1401" y="225" type="line" smooth="yes"/>
      <point x="1401" y="192"/>
      <point x="1398" y="163"/>
      <point x="1393" y="138" type="curve" smooth="yes"/>
      <point x="1379" y="77"/>
      <point x="1295" y="65"/>
      <point x="1246" y="50" type="curve"/>
      <point x="1246" y="34"/>
      <point x="1248" y="0"/>
      <point x="1248" y="0" type="curve"/>
      <point x="1729" y="0" type="line"/>
      <point x="1729" y="0"/>
      <point x="1731" y="34"/>
      <point x="1731" y="50" type="curve"/>
      <point x="1677" y="65"/>
      <point x="1606" y="78"/>
      <point x="1595" y="140" type="curve" smooth="yes"/>
      <point x="1590" y="165"/>
      <point x="1588" y="194"/>
      <point x="1588" y="225" type="curve" smooth="yes"/>
      <point x="1588" y="487" type="line" smooth="yes"/>
      <point x="1588" y="555"/>
      <point x="1585" y="617"/>
      <point x="1580" y="676" type="curve" smooth="yes"/>
      <point x="1565" y="849"/>
      <point x="1446" y="924"/>
      <point x="1279" y="924" type="curve" smooth="yes"/>
      <point x="1138" y="924"/>
      <point x="1058" y="859"/>
      <point x="972" y="765" type="curve"/>
      <point x="927" y="873"/>
      <point x="843" y="926"/>
      <point x="712" y="926" type="curve" smooth="yes"/>
      <point x="570" y="926"/>
      <point x="465" y="846"/>
      <point x="394" y="754" type="curve"/>
      <point x="394" y="754"/>
      <point x="385.25" y="880.5"/>
      <point x="383" y="917" type="curve"/>
      <point x="324" y="913" type="line"/>
      <point x="49" y="845" type="line"/>
      <point x="46" y="811" type="line"/>
      <point x="46" y="811"/>
      <point x="177" y="779"/>
      <point x="205" y="726" type="curve"/>
      <point x="205" y="222" type="line" smooth="yes"/>
      <point x="205" y="190"/>
      <point x="205" y="165"/>
      <point x="198" y="140" type="curve"/>
      <point x="185" y="76"/>
      <point x="87" y="66"/>
      <point x="49" y="53" type="curve"/>
      <point x="49" y="37"/>
      <point x="49" y="0"/>
      <point x="49" y="0" type="curve"/>
      <point x="565" y="0" type="line"/>
      <point x="565" y="0"/>
      <point x="567" y="33"/>
      <point x="567" y="50" type="curve"/>
      <point x="481" y="66"/>
      <point x="391" y="71"/>
      <point x="391" y="235" type="curve" smooth="yes"/>
    </contour>
  </outline>
</glyph>
<glyph name="p" format="1">
  <advance width="1175"/>
  <unicode hex="0070"/>
  <outline>
    <contour>
      <point x="392" y="677" type="line"/>
      <point x="457" y="740"/>
      <point x="541" y="796"/>
      <point x="633" y="796" type="curve" smooth="yes"/>
      <point x="775" y="796"/>
      <point x="907" y="680"/>
      <point x="907" y="428" type="curve" smooth="yes"/>
      <point x="907" y="208"/>
      <point x="823" y="65"/>
      <point x="652" y="65" type="curve" smooth="yes"/>
      <point x="486" y="65"/>
      <point x="392" y="185"/>
      <point x="392" y="347" type="curve" smooth="yes"/>
    </contour>
    <contour>
      <point x="392" y="75" type="line"/>
      <point x="463" y="14"/>
      <point x="547" y="-19"/>
      <point x="637" y="-19" type="curve" smooth="yes"/>
      <point x="896" y="-19"/>
      <point x="1093" y="180"/>
      <point x="1093" y="477" type="curve" smooth="yes"/>
      <point x="1093" y="756"/>
      <point x="932" y="926"/>
      <point x="706" y="926" type="curve" smooth="yes"/>
      <point x="567" y="926"/>
      <point x="472" y="850"/>
      <point x="386" y="754" type="curve"/>
      <point x="378" y="918" type="line"/>
      <point x="310" y="918" type="line"/>
      <point x="40" y="848" type="line"/>
      <point x="40" y="814" type="line"/>
      <point x="48" y="811" type="line" smooth="yes"/>
      <point x="81" y="799"/>
      <point x="180" y="761"/>
      <point x="206" y="714" type="curve"/>
      <point x="206" y="-153" type="line" smooth="yes"/>
      <point x="206" y="-261"/>
      <point x="148" y="-314"/>
      <point x="45" y="-328" type="curve"/>
      <point x="45" y="-344"/>
      <point x="47" y="-378"/>
      <point x="47" y="-378" type="curve"/>
      <point x="574" y="-378" type="line"/>
      <point x="574" y="-378"/>
      <point x="576" y="-344"/>
      <point x="576" y="-328" type="curve"/>
      <point x="453" y="-314"/>
      <point x="392" y="-272"/>
      <point x="392" y="-144" type="curve" smooth="yes"/>
    </contour>
  </outline>
</glyph>
<glyph name="t" format="1">
  <advance width="684"/>
  <unicode hex="0074"/>
  <outline>
    <contour>
      <point x="616" y="824" type="line"/>
      <point x="616" y="899" type="line"/>
      <point x="365" y="899" type="line"/>
      <point x="365" y="1110" type="line" smooth="yes"/>
      <point x="365" y="1139"/>
      <point x="354" y="1149"/>
      <point x="342" y="1149" type="curve" smooth="yes"/>
      <point x="330" y="1149"/>
      <point x="319" y="1141"/>
      <point x="294" y="1101" type="curve" smooth="yes"/>
      <point x="230" y="1002"/>
      <point x="175" y="917"/>
      <point x="31" y="859" type="curve"/>
      <point x="31" y="824" type="line"/>
      <point x="180" y="824" type="line"/>
      <point x="180" y="317" type="line" smooth="yes"/>
      <point x="180" y="66"/>
      <point x="227" y="-20"/>
      <point x="419" y="-20" type="curve" smooth="yes"/>
      <point x="529" y="-20"/>
      <point x="599" y="12"/>
      <point x="647" y="35" type="curve"/>
      <point x="639" y="108" type="line"/>
      <point x="616" y="101"/>
      <point x="557" y="86"/>
      <point x="499" y="86" type="curve" smooth="yes"/>
      <point x="371" y="86"/>
      <point x="367" y="135"/>
      <point x="367" y="314" type="curve" smooth="yes"/>
      <point x="367" y="824" type="line"/>
    </contour>
  </outline>
</glyph>
<glyph name="w" format="1">
  <advance width="1425"/>
  <unicode hex="0077"/>
  <outline>
    <contour>
      <point x="297" y="726" type="curve"/>
      <point x="293" y="738"/>
      <point x="292" y="749"/>
      <point x="292" y="758" type="curve" smooth="yes"/>
      <point x="292" y="813"/>
      <point x="343" y="834"/>
      <point x="393" y="851" type="curve"/>
      <point x="393" y="867"/>
      <point x="393" y="882"/>
      <point x="392" y="899" type="curve"/>
      <point x="-20" y="899" type="line"/>
      <point x="-22" y="850" type="line"/>
      <point x="62" y="832"/>
      <point x="85" y="778"/>
      <point x="116" y="699" type="curve" smooth="yes"/>
      <point x="395" y="-14" type="line"/>
      <point x="402" y="-18"/>
      <point x="413" y="-20"/>
      <point x="427" y="-20" type="curve" smooth="yes"/>
      <point x="440" y="-20"/>
      <point x="450" y="-18"/>
      <point x="458" y="-14" type="curve"/>
      <point x="699" y="596" type="line"/>
      <point x="926" y="-14" type="line"/>
      <point x="934" y="-18"/>
      <point x="944" y="-20"/>
      <point x="957" y="-20" type="curve" smooth="yes"/>
      <point x="970" y="-20"/>
      <point x="980" y="-18"/>
      <point x="987" y="-14" type="curve"/>
      <point x="1257" y="714" type="line" smooth="yes"/>
      <point x="1277" y="768"/>
      <point x="1356" y="838"/>
      <point x="1415" y="846" type="curve"/>
      <point x="1415" y="899" type="line"/>
      <point x="1064" y="899" type="line"/>
      <point x="1063" y="890"/>
      <point x="1062" y="881"/>
      <point x="1062" y="872" type="curve" smooth="yes"/>
      <point x="1062" y="863"/>
      <point x="1063" y="855"/>
      <point x="1064" y="848" type="curve"/>
      <point x="1141" y="825"/>
      <point x="1185" y="830"/>
      <point x="1185" y="754" type="curve" smooth="yes"/>
      <point x="1185" y="727"/>
      <point x="1176" y="698"/>
      <point x="1166" y="672" type="curve" smooth="yes"/>
      <point x="1010" y="251" type="line"/>
      <point x="847" y="698" type="line" smooth="yes"/>
      <point x="837" y="725"/>
      <point x="829" y="749"/>
      <point x="829" y="768" type="curve" smooth="yes"/>
      <point x="829" y="825"/>
      <point x="894" y="827"/>
      <point x="944" y="851" type="curve"/>
      <point x="944" y="867"/>
      <point x="943" y="882"/>
      <point x="942" y="899" type="curve"/>
      <point x="500" y="899" type="line"/>
      <point x="498" y="851" type="line"/>
      <point x="592" y="846"/>
      <point x="643" y="769"/>
      <point x="666" y="688" type="curve"/>
      <point x="483" y="243" type="line"/>
      <point x="298" y="719" type="line" smooth="yes"/>
      <point x="297" y="722"/>
      <point x="297" y="723"/>
    </contour>
  </outline>
</glyph>
<glyph name="y" format="1">
  <advance width="1000"/>
  <unicode hex="0079"/>
  <outline>
    <contour>
      <point x="470" y="0" type="line"/>
      <point x="404" y="-171"/>
      <point x="368" y="-271"/>
      <point x="302" y="-271" type="curve" smooth="yes"/>
      <point x="238" y="-271"/>
      <point x="253" y="-192"/>
      <point x="166" y="-186" type="curve" smooth="yes"/>
      <point x="112" y="-182"/>
      <point x="65" y="-224"/>
      <point x="65" y="-279" type="curve" smooth="yes"/>
      <point x="65" y="-351"/>
      <point x="131" y="-395"/>
      <point x="219" y="-395" type="curve" smooth="yes"/>
      <point x="351" y="-395"/>
      <point x="423" y="-301"/>
      <point x="477" y="-167" type="curve" smooth="yes"/>
      <point x="832" y="707" type="line"/>
      <point x="866" y="827"/>
      <point x="936" y="812"/>
      <point x="981" y="848" type="curve"/>
      <point x="981" y="866"/>
      <point x="980" y="899"/>
      <point x="980" y="899" type="curve"/>
      <point x="613" y="899" type="line"/>
      <point x="613" y="899"/>
      <point x="612" y="883"/>
      <point x="612" y="866" type="curve" smooth="yes"/>
      <point x="612" y="858"/>
      <point x="612" y="849"/>
      <point x="613" y="843" type="curve"/>
      <point x="702" y="828"/>
      <point x="743" y="801"/>
      <point x="743" y="743" type="curve" smooth="yes"/>
      <point x="743" y="723"/>
      <point x="738" y="701"/>
      <point x="728" y="675" type="curve" smooth="yes"/>
      <point x="557" y="212" type="line"/>
      <point x="359" y="705" type="line"/>
      <point x="352" y="727"/>
      <point x="346" y="753"/>
      <point x="346" y="767" type="curve" smooth="yes"/>
      <point x="346" y="814"/>
      <point x="400" y="828"/>
      <point x="474" y="842" type="curve" smooth="yes"/>
      <point x="480" y="843"/>
      <point x="469" y="899"/>
      <point x="469" y="899" type="curve"/>
      <point x="0" y="899" type="line"/>
      <point x="0" y="847" type="line"/>
      <point x="46" y="831"/>
      <point x="94" y="857"/>
      <point x="158" y="712" type="curve" smooth="yes"/>
    </contour>
    <contour>
      <point x="490" y="900" type="move" name="top"/>
    </contour>
  </outline>
</glyph>
<glyph name="z" format="1">
  <advance width="949"/>
  <unicode hex="007A"/>
  <outline>
    <contour>
      <point x="486" y="900" type="move" name="top"/>
    </contour>
    <contour>
      <point x="874" y="840" type="line"/>
      <point x="874" y="895" type="line"/>
      <point x="873" y="895"/>
      <point x="838" y="898"/>
      <point x="819" y="899" type="curve"/>
      <point x="318" y="899" type="line" smooth="yes"/>
      <point x="276" y="899"/>
      <point x="220" y="899"/>
      <point x="151" y="925" type="curve"/>
      <point x="130" y="664" type="line"/>
      <point x="175" y="662" type="line"/>
      <point x="238" y="707"/>
      <point x="274" y="818"/>
      <point x="364" y="829" type="curve"/>
      <point x="402" y="838"/>
      <point x="445" y="838"/>
      <point x="489" y="838" type="curve" smooth="yes"/>
      <point x="658" y="838" type="line"/>
      <point x="81" y="33" type="line"/>
      <point x="95" y="0" type="line"/>
      <point x="703" y="0" type="line" smooth="yes"/>
      <point x="737" y="0"/>
      <point x="862" y="-11"/>
      <point x="862" y="-11" type="curve"/>
      <point x="891" y="277" type="line"/>
      <point x="874" y="277"/>
      <point x="857" y="279"/>
      <point x="840" y="279" type="curve"/>
      <point x="793" y="232"/>
      <point x="771" y="109"/>
      <point x="694" y="86" type="curve" smooth="yes"/>
      <point x="643" y="71"/>
      <point x="588" y="60"/>
      <point x="523" y="60" type="curve" smooth="yes"/>
      <point x="329" y="60" type="line"/>
    </contour>
  </outline>
</glyph>
<glyph name="asciitilde" format="1">
  <advance width="858"/>
  <unicode hex="007E"/>
  <outline>
    <contour>
      <point x="757" y="846" type="line"/>
      <point x="754" y="770"/>
      <point x="724" y="718"/>
      <point x="642" y="718" type="curve" smooth="yes"/>
      <point x="538" y="718"/>
      <point x="365" y="851"/>
      <point x="223" y="851" type="curve" smooth="yes"/>
      <point x="70" y="851"/>
      <point x="18" y="731"/>
      <point x="6" y="596" type="curve"/>
      <point x="97" y="596" type="line"/>
      <point x="105" y="665"/>
      <point x="141" y="713"/>
      <point x="214" y="713" type="curve" smooth="yes"/>
      <point x="324" y="713"/>
      <point x="483" y="583"/>
      <point x="645" y="583" type="curve" smooth="yes"/>
      <point x="779" y="583"/>
      <point x="846" y="691"/>
      <point x="846" y="846" type="curve"/>
    </contour>
  </outline>
</glyph>
<glyph name="brokenbar" format="1">
  <advance width="826"/>
  <unicode hex="00A6"/>
  <outline>
    <contour>
      <point x="355" y="407" type="curve"/>
      <point x="355" y="-197" type="line"/>
      <point x="388" y="-213"/>
      <point x="398" y="-229"/>
      <point x="438" y="-229" type="curve"/>
      <point x="472" y="-172"/>
      <point x="473" y="-82"/>
      <point x="473" y="-17" type="curve" smooth="yes"/>
      <point x="473" y="40"/>
      <point x="477" y="111"/>
      <point x="477" y="183" type="curve" smooth="yes"/>
      <point x="477" y="282"/>
      <point x="470" y="382"/>
      <point x="438" y="443" type="curve"/>
      <point x="407" y="443"/>
      <point x="372" y="435"/>
    </contour>
    <contour>
      <point x="355" y="1343" type="curve"/>
      <point x="355" y="1010" type="line" smooth="yes"/>
      <point x="355" y="911"/>
      <point x="357" y="793"/>
      <point x="387" y="707" type="curve"/>
      <point x="421" y="707"/>
      <point x="445" y="717"/>
      <point x="470" y="739" type="curve"/>
      <point x="470" y="1247" type="line" smooth="yes"/>
      <point x="470" y="1296"/>
      <point x="456" y="1335"/>
      <point x="438" y="1379" type="curve"/>
      <point x="407" y="1379"/>
      <point x="372" y="1371"/>
    </contour>
  </outline>
</glyph>
<glyph name="dieresis" format="1">
  <advance width="1121"/>
  <unicode hex="00A8"/>
  <outline>
    <contour>
      <point x="558" y="900" type="move" name="_top"/>
    </contour>
    <contour>
      <point x="338" y="1301" type="curve" smooth="yes"/>
      <point x="277" y="1301"/>
      <point x="229" y="1252"/>
      <point x="229" y="1192" type="curve" smooth="yes"/>
      <point x="229" y="1131"/>
      <point x="277" y="1083"/>
      <point x="338" y="1083" type="curve" smooth="yes"/>
      <point x="398" y="1083"/>
      <point x="447" y="1131"/>
      <point x="447" y="1192" type="curve" smooth="yes"/>
      <point x="447" y="1252"/>
      <point x="398" y="1301"/>
    </contour>
    <contour>
      <point x="777" y="1301" type="curve" smooth="yes"/>
      <point x="717" y="1301"/>
      <point x="669" y="1252"/>
      <point x="669" y="1192" type="curve" smooth="yes"/>
      <point x="669" y="1131"/>
      <point x="717" y="1083"/>
      <point x="777" y="1083" type="curve" smooth="yes"/>
      <point x="838" y="1083"/>
      <point x="887" y="1131"/>
      <point x="887" y="1192" type="curve" smooth="yes"/>
      <point x="887" y="1252"/>
      <point x="838" y="1301"/>
    </contour>
  </outline>
</glyph>
<glyph name="registered" format="1">
  <advance width="1507"/>
  <unicode hex="00AE"/>
  <outline>
    <contour>
      <point x="1350" y="627" type="curve" smooth="yes"/>
      <point x="1350" y="305"/>
      <point x="1096" y="41"/>
      <point x="772" y="41" type="curve" smooth="yes"/>
      <point x="414" y="41"/>
      <point x="162" y="313"/>
      <point x="162" y="666" type="curve" smooth="yes"/>
      <point x="162" y="996"/>
      <point x="419" y="1249"/>
      <point x="748" y="1249" type="curve" smooth="yes"/>
      <point x="1103" y="1249"/>
      <point x="1350" y="976"/>
    </contour>
    <contour>
      <point x="1435" y="646" type="curve" smooth="yes"/>
      <point x="1435" y="1024"/>
      <point x="1128" y="1314"/>
      <point x="754" y="1314" type="curve" smooth="yes"/>
      <point x="383" y="1314"/>
      <point x="73" y="1021"/>
      <point x="73" y="646" type="curve" smooth="yes"/>
      <point x="73" y="271"/>
      <point x="381" y="-23"/>
      <point x="753" y="-23" type="curve" smooth="yes"/>
      <point x="1133" y="-23"/>
      <point x="1435" y="262"/>
    </contour>
    <contour>
      <point x="630" y="1018" type="line"/>
      <point x="652" y="1022"/>
      <point x="675" y="1024"/>
      <point x="697" y="1024" type="curve" smooth="yes"/>
      <point x="808" y="1024"/>
      <point x="910" y="979"/>
      <point x="910" y="853" type="curve" smooth="yes"/>
      <point x="910" y="694"/>
      <point x="753" y="682"/>
      <point x="630" y="680" type="curve"/>
    </contour>
    <contour>
      <point x="701" y="644" type="line"/>
      <point x="778" y="505"/>
      <point x="862" y="372"/>
      <point x="947" y="241" type="curve"/>
      <point x="1146" y="241" type="line"/>
      <point x="1146" y="273"/>
      <point x="1116" y="262"/>
      <point x="1109" y="282" type="curve"/>
      <point x="1039" y="302"/>
      <point x="885" y="577"/>
      <point x="838" y="652" type="curve"/>
      <point x="948" y="674"/>
      <point x="1064" y="729"/>
      <point x="1064" y="857" type="curve" smooth="yes"/>
      <point x="1064" y="1020"/>
      <point x="878" y="1069"/>
      <point x="746" y="1069" type="curve" smooth="yes"/>
      <point x="385" y="1069" type="line"/>
      <point x="384" y="1045" type="line"/>
      <point x="430" y="1025"/>
      <point x="485" y="1012"/>
      <point x="485" y="951" type="curve" smooth="yes"/>
      <point x="485" y="349" type="line" smooth="yes"/>
      <point x="485" y="281"/>
      <point x="424" y="283"/>
      <point x="376" y="266" type="curve"/>
      <point x="378" y="241" type="line"/>
      <point x="744" y="241" type="line"/>
      <point x="745" y="266" type="line"/>
      <point x="702" y="278"/>
      <point x="630" y="276"/>
      <point x="630" y="338" type="curve" smooth="yes"/>
      <point x="630" y="644" type="line"/>
    </contour>
  </outline>
</glyph>
<glyph name="degree" format="1">
  <advance width="703"/>
  <unicode hex="00B0"/>
  <outline>
    <contour>
      <point x="593" y="1045" type="curve" smooth="yes"/>
      <point x="593" y="1177"/>
      <point x="486" y="1287"/>
      <point x="351" y="1287" type="curve" smooth="yes"/>
      <point x="214" y="1287"/>
      <point x="106" y="1177"/>
      <point x="106" y="1045" type="curve" smooth="yes"/>
      <point x="106" y="911"/>
      <point x="214" y="803"/>
      <point x="351" y="803" type="curve" smooth="yes"/>
      <point x="486" y="803"/>
      <point x="593" y="914"/>
    </contour>
    <contour>
      <point x="543" y="1045" type="curve" smooth="yes"/>
      <point x="543" y="943"/>
      <point x="458" y="855"/>
      <point x="352" y="855" type="curve" smooth="yes"/>
      <point x="246" y="855"/>
      <point x="160" y="940"/>
      <point x="160" y="1045" type="curve" smooth="yes"/>
      <point x="160" y="1145"/>
      <point x="246" y="1233"/>
      <point x="352" y="1233" type="curve" smooth="yes"/>
      <point x="458" y="1233"/>
      <point x="543" y="1145"/>
    </contour>
  </outline>
</glyph>
<glyph name="guillemotright" format="1">
  <advance width="794"/>
  <unicode hex="00BB"/>
  <outline>
    <contour>
      <point x="352" y="85" type="curve"/>
      <point x="363" y="72"/>
      <point x="376" y="63"/>
      <point x="394" y="63" type="curve"/>
      <point x="420" y="82"/>
      <point x="441" y="106"/>
      <point x="461" y="132" type="curve" smooth="yes"/>
      <point x="748" y="507" type="line"/>
      <point x="633" y="651"/>
      <point x="525" y="811"/>
      <point x="398" y="946" type="curve"/>
      <point x="377" y="946"/>
      <point x="357" y="938"/>
      <point x="345" y="921" type="curve"/>
      <point x="388" y="781"/>
      <point x="498" y="629"/>
      <point x="566" y="507" type="curve"/>
      <point x="494" y="372"/>
      <point x="397" y="234"/>
    </contour>
    <contour>
      <point x="84" y="134" type="curve"/>
      <point x="95" y="121"/>
      <point x="107" y="112"/>
      <point x="125" y="112" type="curve"/>
      <point x="201" y="168"/>
      <point x="386" y="453"/>
      <point x="425" y="507" type="curve"/>
      <point x="327" y="635"/>
      <point x="236" y="776"/>
      <point x="129" y="897" type="curve"/>
      <point x="108" y="897"/>
      <point x="89" y="889"/>
      <point x="76" y="872" type="curve"/>
      <point x="103" y="755"/>
      <point x="203" y="606"/>
      <point x="254" y="507" type="curve"/>
      <point x="200" y="398"/>
      <point x="108" y="258"/>
    </contour>
  </outline>
</glyph>
<glyph name="threequarters" format="1">
  <advance width="1931"/>
  <unicode hex="00BE"/>
  <outline>
    <contour>
      <point x="643" y="-77" type="curve"/>
      <point x="676" y="-31"/>
      <point x="716" y="20"/>
      <point x="740" y="71" type="curve" smooth="yes"/>
      <point x="837" y="279"/>
      <point x="929" y="488"/>
      <point x="1037" y="691" type="curve" smooth="yes"/>
      <point x="1140" y="883"/>
      <point x="1254" y="1067"/>
      <point x="1365" y="1254" type="curve" smooth="yes"/>
      <point x="1443" y="1386" type="line"/>
      <point x="1416" y="1403"/>
      <point x="1385" y="1410"/>
      <point x="1353" y="1410" type="curve"/>
      <point x="1248" y="1338"/>
      <point x="1184" y="1157"/>
      <point x="1124" y="1045" type="curve" smooth="yes"/>
      <point x="615" y="91" type="line" smooth="yes"/>
      <point x="589" y="42"/>
      <point x="574" y="-27"/>
      <point x="556" y="-81" type="curve"/>
      <point x="589" y="-81" type="line" smooth="yes"/>
      <point x="607" y="-81"/>
      <point x="625" y="-81"/>
    </contour>
    <contour>
      <point x="1202" y="325" type="line"/>
      <point x="1465" y="716" type="line"/>
      <point x="1465" y="325" type="line"/>
    </contour>
    <contour>
      <point x="1745" y="251" type="line"/>
      <point x="1754" y="288"/>
      <point x="1768" y="329"/>
      <point x="1774" y="367" type="curve"/>
      <point x="1767" y="384"/>
      <point x="1755" y="386"/>
      <point x="1745" y="386" type="curve"/>
      <point x="1709" y="351"/>
      <point x="1727" y="328"/>
      <point x="1617" y="328" type="curve"/>
      <point x="1617" y="846" type="line"/>
      <point x="1570" y="846"/>
      <point x="1523" y="842"/>
      <point x="1477" y="840" type="curve"/>
      <point x="1111" y="319" type="line"/>
      <point x="1116" y="251" type="line"/>
      <point x="1467" y="251" type="line"/>
      <point x="1467" y="155" type="line" smooth="yes"/>
      <point x="1467" y="94"/>
      <point x="1383" y="98"/>
      <point x="1342" y="83" type="curve"/>
      <point x="1342" y="47" type="line"/>
      <point x="1742" y="47" type="line"/>
      <point x="1742" y="84" type="line"/>
      <point x="1703" y="96"/>
      <point x="1617" y="97"/>
      <point x="1617" y="155" type="curve" smooth="yes"/>
      <point x="1617" y="251" type="line"/>
    </contour>
    <contour>
      <point x="397" y="950" type="curve"/>
      <point x="505" y="961"/>
      <point x="595" y="1038"/>
      <point x="595" y="1151" type="curve" smooth="yes"/>
      <point x="595" y="1268"/>
      <point x="498" y="1327"/>
      <point x="390" y="1327" type="curve" smooth="yes"/>
      <point x="302" y="1327"/>
      <point x="197" y="1287"/>
      <point x="145" y="1213" type="curve"/>
      <point x="144" y="1209"/>
      <point x="142" y="1205"/>
      <point x="142" y="1201" type="curve" smooth="yes"/>
      <point x="142" y="1192"/>
      <point x="145" y="1182"/>
      <point x="155" y="1182" type="curve" smooth="yes"/>
      <point x="231" y="1182"/>
      <point x="286" y="1257"/>
      <point x="372" y="1257" type="curve" smooth="yes"/>
      <point x="445" y="1257"/>
      <point x="477" y="1221"/>
      <point x="477" y="1150" type="curve" smooth="yes"/>
      <point x="477" y="1051"/>
      <point x="307" y="969"/>
      <point x="226" y="930" type="curve" smooth="yes"/>
      <point x="223" y="928"/>
      <point x="220" y="926"/>
      <point x="217" y="925" type="curve"/>
      <point x="251" y="887" type="line"/>
      <point x="275" y="892"/>
      <point x="300" y="896"/>
      <point x="325" y="896" type="curve" smooth="yes"/>
      <point x="457" y="896"/>
      <point x="511" y="788"/>
      <point x="511" y="670" type="curve" smooth="yes"/>
      <point x="511" y="549"/>
      <point x="439" y="447"/>
      <point x="310" y="447" type="curve" smooth="yes"/>
      <point x="281" y="447"/>
      <point x="190" y="465"/>
      <point x="190" y="504" type="curve" smooth="yes"/>
      <point x="190" y="524"/>
      <point x="205" y="543"/>
      <point x="205" y="566" type="curve" smooth="yes"/>
      <point x="205" y="601"/>
      <point x="171" y="633"/>
      <point x="137" y="633" type="curve" smooth="yes"/>
      <point x="95" y="633"/>
      <point x="59" y="596"/>
      <point x="59" y="554" type="curve" smooth="yes"/>
      <point x="59" y="433"/>
      <point x="236" y="405"/>
      <point x="328" y="405" type="curve" smooth="yes"/>
      <point x="487" y="405"/>
      <point x="676" y="490"/>
      <point x="676" y="673" type="curve" smooth="yes"/>
      <point x="676" y="839"/>
      <point x="562" y="950"/>
    </contour>
  </outline>
</glyph>
<glyph name="questiondown" format="1">
  <advance width="806"/>
  <unicode hex="00BF"/>
  <outline>
    <contour>
      <point x="494" y="1080" type="curve" smooth="yes"/>
      <point x="562" y="1080"/>
      <point x="617" y="1138"/>
      <point x="617" y="1205" type="curve" smooth="yes"/>
      <point x="617" y="1271"/>
      <point x="561" y="1329"/>
      <point x="494" y="1329" type="curve" smooth="yes"/>
      <point x="427" y="1329"/>
      <point x="368" y="1273"/>
      <point x="368" y="1205" type="curve" smooth="yes"/>
      <point x="368" y="1137"/>
      <point x="426" y="1080"/>
    </contour>
    <contour>
      <point x="460" y="958" type="line"/>
      <point x="460" y="919" type="line" smooth="yes"/>
      <point x="460" y="667"/>
      <point x="68" y="703"/>
      <point x="68" y="346" type="curve" smooth="yes"/>
      <point x="68" y="155"/>
      <point x="280" y="-13"/>
      <point x="474" y="-13" type="curve" smooth="yes"/>
      <point x="579" y="-13"/>
      <point x="730" y="22"/>
      <point x="730" y="137" type="curve" smooth="yes"/>
      <point x="730" y="178"/>
      <point x="698" y="220"/>
      <point x="654" y="220" type="curve" smooth="yes"/>
      <point x="566" y="220"/>
      <point x="535" y="98"/>
      <point x="446" y="98" type="curve" smooth="yes"/>
      <point x="322" y="98"/>
      <point x="205" y="206"/>
      <point x="205" y="332" type="curve" smooth="yes"/>
      <point x="205" y="560"/>
      <point x="573" y="626"/>
      <point x="573" y="740" type="curve" smooth="yes"/>
      <point x="573" y="814"/>
      <point x="548" y="885"/>
      <point x="541" y="958" type="curve"/>
    </contour>
  </outline>
</glyph>
<glyph name="Eth" format="1">
  <advance width="1613"/>
  <unicode hex="00D0"/>
  <outline>
    <contour>
      <point x="292" y="219" type="line" smooth="yes"/>
      <point x="292" y="81"/>
      <point x="165" y="81"/>
      <point x="68" y="52" type="curve"/>
      <point x="70" y="0" type="line"/>
      <point x="789" y="0" type="line" smooth="yes"/>
      <point x="1267" y="0"/>
      <point x="1512" y="321"/>
      <point x="1512" y="658" type="curve" smooth="yes"/>
      <point x="1512" y="1130"/>
      <point x="1138" y="1302"/>
      <point x="662" y="1302" type="curve" smooth="yes"/>
      <point x="70" y="1302" type="line"/>
      <point x="68" y="1251" type="line"/>
      <point x="140" y="1226"/>
      <point x="267" y="1212"/>
      <point x="282" y="1131" type="curve" smooth="yes"/>
      <point x="288" y="1094"/>
      <point x="292" y="1053"/>
      <point x="292" y="1010" type="curve" smooth="yes"/>
      <point x="292" y="765" type="line"/>
      <point x="111" y="765" type="line"/>
      <point x="111" y="637" type="line"/>
      <point x="292" y="637" type="line"/>
    </contour>
    <contour>
      <point x="713" y="637" type="line"/>
      <point x="713" y="765" type="line"/>
      <point x="507" y="765" type="line"/>
      <point x="507" y="1225" type="line"/>
      <point x="675" y="1225" type="line" smooth="yes"/>
      <point x="1094" y="1225"/>
      <point x="1274" y="954"/>
      <point x="1274" y="609" type="curve" smooth="yes"/>
      <point x="1274" y="352"/>
      <point x="1116" y="77"/>
      <point x="770" y="77" type="curve" smooth="yes"/>
      <point x="733" y="77"/>
      <point x="692" y="78"/>
      <point x="655" y="80" type="curve" smooth="yes"/>
      <point x="540" y="85"/>
      <point x="507" y="166"/>
      <point x="507" y="271" type="curve" smooth="yes"/>
      <point x="507" y="637" type="line"/>
    </contour>
  </outline>
</glyph>
<glyph name="Oslash" format="1">
  <advance width="1603"/>
  <unicode hex="00D8"/>
  <outline>
    <contour>
      <point x="1128" y="1046" type="curve"/>
      <point x="1208" y="931"/>
      <point x="1258" y="768"/>
      <point x="1258" y="586" type="curve" smooth="yes"/>
      <point x="1258" y="248"/>
      <point x="1076" y="51"/>
      <point x="837" y="51" type="curve" smooth="yes"/>
      <point x="734" y="51"/>
      <point x="641" y="93"/>
      <point x="569" y="171" type="curve"/>
      <point x="770" y="522"/>
      <point x="958" y="807"/>
    </contour>
    <contour>
      <point x="490" y="247" type="line"/>
      <point x="403" y="357"/>
      <point x="345" y="532"/>
      <point x="345" y="723" type="curve" smooth="yes"/>
      <point x="345" y="1059"/>
      <point x="539" y="1250"/>
      <point x="769" y="1250" type="curve" smooth="yes"/>
      <point x="878" y="1250"/>
      <point x="980" y="1205"/>
      <point x="1056" y="1127" type="curve"/>
    </contour>
    <contour>
      <point x="1133" y="1241" type="curve"/>
      <point x="1034" y="1300"/>
      <point x="926" y="1327"/>
      <point x="805" y="1327" type="curve" smooth="yes"/>
      <point x="427" y="1327"/>
      <point x="112" y="1060"/>
      <point x="112" y="641" type="curve" smooth="yes"/>
      <point x="112" y="394"/>
      <point x="217" y="223"/>
      <point x="393" y="105" type="curve"/>
      <point x="326" y="-5" type="line"/>
      <point x="310" y="-27"/>
      <point x="295" y="-50"/>
      <point x="282" y="-71" type="curve"/>
      <point x="294" y="-100"/>
      <point x="317" y="-125"/>
      <point x="341" y="-136" type="curve"/>
      <point x="407" y="-104"/>
      <point x="441" y="-31"/>
      <point x="489" y="57" type="curve"/>
      <point x="573" y="0"/>
      <point x="673" y="-26"/>
      <point x="783" y="-26" type="curve" smooth="yes"/>
      <point x="1166" y="-26"/>
      <point x="1491" y="239"/>
      <point x="1491" y="648" type="curve" smooth="yes"/>
      <point x="1491" y="880"/>
      <point x="1388" y="1068"/>
      <point x="1227" y="1189" type="curve"/>
      <point x="1282" y="1277"/>
      <point x="1309" y="1314"/>
      <point x="1334" y="1356" type="curve"/>
      <point x="1321" y="1379"/>
      <point x="1305" y="1402"/>
      <point x="1267" y="1413" type="curve"/>
      <point x="1186" y="1383"/>
      <point x="1178" y="1320"/>
    </contour>
  </outline>
</glyph>
<glyph name="Thorn" format="1">
  <advance width="1296"/>
  <unicode hex="00DE"/>
  <outline>
    <contour>
      <point x="491" y="957" type="line"/>
      <point x="712" y="957"/>
      <point x="1008" y="952"/>
      <point x="1008" y="654" type="curve" smooth="yes"/>
      <point x="1008" y="454"/>
      <point x="846" y="375"/>
      <point x="667" y="375" type="curve" smooth="yes"/>
      <point x="608" y="375"/>
      <point x="550" y="377"/>
      <point x="491" y="380" type="curve"/>
    </contour>
    <contour>
      <point x="275" y="214" type="line" smooth="yes"/>
      <point x="275" y="87"/>
      <point x="159" y="84"/>
      <point x="68" y="52" type="curve"/>
      <point x="70" y="0" type="line"/>
      <point x="719" y="0" type="line"/>
      <point x="721" y="51" type="line"/>
      <point x="522" y="105"/>
      <point x="491" y="87"/>
      <point x="491" y="308" type="curve"/>
      <point x="567" y="303"/>
      <point x="644" y="300"/>
      <point x="720" y="300" type="curve" smooth="yes"/>
      <point x="955" y="300"/>
      <point x="1242" y="385"/>
      <point x="1242" y="668" type="curve" smooth="yes"/>
      <point x="1242" y="1016"/>
      <point x="846" y="1033"/>
      <point x="570" y="1033" type="curve" smooth="yes"/>
      <point x="491" y="1033" type="line"/>
      <point x="491" y="1072" type="line" smooth="yes"/>
      <point x="491" y="1210"/>
      <point x="607" y="1214"/>
      <point x="705" y="1250" type="curve"/>
      <point x="703" y="1302" type="line"/>
      <point x="70" y="1302" type="line"/>
      <point x="70" y="1251" type="line"/>
      <point x="194" y="1185"/>
      <point x="275" y="1256"/>
      <point x="275" y="1048" type="curve" smooth="yes"/>
    </contour>
  </outline>
</glyph>
<glyph name="oslash" format="1">
  <advance width="1111"/>
  <unicode hex="00F8"/>
  <outline>
    <contour>
      <point x="762" y="698" type="curve"/>
      <point x="815" y="599"/>
      <point x="835" y="483"/>
      <point x="835" y="372" type="curve" smooth="yes"/>
      <point x="835" y="209"/>
      <point x="748" y="62"/>
      <point x="570" y="62" type="curve" smooth="yes"/>
      <point x="508" y="62"/>
      <point x="456" y="98"/>
      <point x="417" y="144" type="curve"/>
      <point x="523" y="334"/>
      <point x="636" y="520"/>
    </contour>
    <contour>
      <point x="354" y="219" type="line"/>
      <point x="301" y="312"/>
      <point x="282" y="418"/>
      <point x="282" y="524" type="curve" smooth="yes"/>
      <point x="282" y="682"/>
      <point x="351" y="860"/>
      <point x="535" y="860" type="curve" smooth="yes"/>
      <point x="607" y="860"/>
      <point x="665" y="830"/>
      <point x="708" y="772" type="curve"/>
    </contour>
    <contour>
      <point x="184" y="-35" type="line"/>
      <point x="191" y="-63"/>
      <point x="205" y="-104"/>
      <point x="236" y="-114" type="curve"/>
      <point x="298" y="-91"/>
      <point x="322" y="-13"/>
      <point x="348" y="42" type="curve"/>
      <point x="411" y="2"/>
      <point x="484" y="-20"/>
      <point x="559" y="-20" type="curve" smooth="yes"/>
      <point x="832" y="-20"/>
      <point x="1029" y="185"/>
      <point x="1029" y="456" type="curve" smooth="yes"/>
      <point x="1029" y="599"/>
      <point x="969" y="736"/>
      <point x="852" y="821" type="curve"/>
      <point x="882" y="872"/>
      <point x="922" y="919"/>
      <point x="949" y="970" type="curve"/>
      <point x="937" y="1002"/>
      <point x="906" y="1018"/>
      <point x="875" y="1026" type="curve"/>
      <point x="834" y="1008"/>
      <point x="811" y="905"/>
      <point x="776" y="867" type="curve"/>
      <point x="707" y="906"/>
      <point x="629" y="926"/>
      <point x="549" y="926" type="curve" smooth="yes"/>
      <point x="285" y="926"/>
      <point x="82" y="724"/>
      <point x="82" y="460" type="curve" smooth="yes"/>
      <point x="82" y="313"/>
      <point x="147" y="183"/>
      <point x="262" y="91" type="curve"/>
    </contour>
  </outline>
</glyph>
<glyph name="dotlessi" format="1">
  <advance width="589"/>
  <unicode hex="0131"/>
  <outline>
    <contour>
      <point x="219" y="181" type="line" smooth="yes"/>
      <point x="219" y="83"/>
      <point x="91" y="74"/>
      <point x="47" y="50" type="curve"/>
      <point x="47" y="34"/>
      <point x="47" y="18"/>
      <point x="49" y="0" type="curve"/>
      <point x="557" y="0" type="line"/>
      <point x="558" y="17"/>
      <point x="559" y="33"/>
      <point x="559" y="50" type="curve"/>
      <point x="530" y="71"/>
      <point x="427" y="68"/>
      <point x="415" y="135" type="curve"/>
      <point x="408" y="159"/>
      <point x="405" y="187"/>
      <point x="405" y="220" type="curve" smooth="yes"/>
      <point x="405" y="912" type="line"/>
      <point x="346" y="906" type="line"/>
      <point x="69" y="826" type="line"/>
      <point x="68" y="813"/>
      <point x="67" y="802"/>
      <point x="67" y="791" type="curve"/>
      <point x="96" y="757"/>
      <point x="189" y="759"/>
      <point x="219" y="707" type="curve"/>
    </contour>
  </outline>
</glyph>
<glyph name="Eng" format="1">
  <advance width="1545"/>
  <unicode hex="014A"/>
  <outline>
    <contour>
      <point x="1232" y="1026" type="line" smooth="yes"/>
      <point x="1232" y="1148"/>
      <point x="1477" y="1109"/>
      <point x="1477" y="1159" type="curve" smooth="yes"/>
      <point x="1477" y="1160"/>
      <point x="1476" y="1166"/>
      <point x="1473" y="1176" type="curve"/>
      <point x="927" y="1176" type="line"/>
      <point x="924" y="1168"/>
      <point x="922" y="1162"/>
      <point x="922" y="1158" type="curve" smooth="yes"/>
      <point x="922" y="1104"/>
      <point x="1152" y="1142"/>
      <point x="1152" y="1040" type="curve" smooth="yes"/>
      <point x="1152" y="405" type="line"/>
      <point x="459" y="1176" type="line"/>
      <point x="87" y="1176" type="line"/>
      <point x="83" y="1158" type="line"/>
      <point x="119" y="1098"/>
      <point x="309" y="1128"/>
      <point x="309" y="1022" type="curve" smooth="yes"/>
      <point x="309" y="157" type="line"/>
      <point x="280" y="34"/>
      <point x="68" y="89"/>
      <point x="68" y="22" type="curve" smooth="yes"/>
      <point x="68" y="13"/>
      <point x="69" y="6"/>
      <point x="72" y="0" type="curve"/>
      <point x="608" y="0" type="line"/>
      <point x="613" y="12"/>
      <point x="614" y="16"/>
      <point x="614" y="20" type="curve" smooth="yes"/>
      <point x="613" y="96"/>
      <point x="388" y="14"/>
      <point x="383" y="150" type="curve" smooth="yes"/>
      <point x="355" y="952" type="line"/>
      <point x="1172" y="79" type="line"/>
      <point x="1172" y="-172"/>
      <point x="1101" y="-237"/>
      <point x="1061" y="-237" type="curve" smooth="yes"/>
      <point x="1034" y="-237"/>
      <point x="1014" y="-210"/>
      <point x="1014" y="-189" type="curve" smooth="yes"/>
      <point x="1014" y="-150"/>
      <point x="976" y="-126"/>
      <point x="937" y="-126" type="curve" smooth="yes"/>
      <point x="885" y="-126"/>
      <point x="855" y="-158"/>
      <point x="855" y="-197" type="curve" smooth="yes"/>
      <point x="855" y="-245"/>
      <point x="932" y="-312"/>
      <point x="1016" y="-312" type="curve" smooth="yes"/>
      <point x="1116" y="-312"/>
      <point x="1232" y="-217"/>
      <point x="1232" y="117" type="curve" smooth="yes"/>
    </contour>
  </outline>
</glyph>
<glyph name="OE" format="1">
  <advance width="2112"/>
  <unicode hex="0152"/>
  <outline>
    <contour>
      <point x="346" y="718" type="curve" smooth="yes"/>
      <point x="346" y="1031"/>
      <point x="507" y="1224"/>
      <point x="746" y="1224" type="curve" smooth="yes"/>
      <point x="907" y="1224"/>
      <point x="1014" y="1218"/>
      <point x="1083" y="1209" type="curve"/>
      <point x="1086" y="863"/>
      <point x="1088" y="487"/>
      <point x="1088" y="101" type="curve"/>
      <point x="1066" y="89"/>
      <point x="957" y="80"/>
      <point x="790" y="80" type="curve" smooth="yes"/>
      <point x="477" y="80"/>
      <point x="346" y="421"/>
    </contour>
    <contour>
      <point x="1175" y="718" type="curve"/>
      <point x="1175" y="920"/>
      <point x="1170" y="1080"/>
      <point x="1170" y="1195" type="curve" smooth="yes"/>
      <point x="1170" y="1225"/>
      <point x="1247" y="1230"/>
      <point x="1281" y="1230" type="curve" smooth="yes"/>
      <point x="1444" y="1230"/>
      <point x="1636" y="1231"/>
      <point x="1753" y="1211" type="curve" smooth="yes"/>
      <point x="1862" y="1192"/>
      <point x="1863" y="1049"/>
      <point x="1923" y="989" type="curve"/>
      <point x="1939" y="989"/>
      <point x="1956" y="990"/>
      <point x="1974" y="992" type="curve"/>
      <point x="1974" y="1319" type="line"/>
      <point x="1934" y="1321"/>
      <point x="1900" y="1322"/>
      <point x="1867" y="1322" type="curve"/>
      <point x="1769" y="1304"/>
      <point x="1720" y="1301"/>
      <point x="1574" y="1301" type="curve" smooth="yes"/>
      <point x="1507" y="1301"/>
      <point x="1419" y="1302"/>
      <point x="1297" y="1302" type="curve" smooth="yes"/>
      <point x="794" y="1302" type="line" smooth="yes"/>
      <point x="414" y="1302"/>
      <point x="112" y="1058"/>
      <point x="112" y="656" type="curve" smooth="yes"/>
      <point x="112" y="289"/>
      <point x="364" y="-1"/>
      <point x="779" y="-1" type="curve" smooth="yes"/>
      <point x="1831" y="-1" type="line" smooth="yes"/>
      <point x="1877" y="-1"/>
      <point x="1911" y="-29"/>
      <point x="1953" y="-29" type="curve" smooth="yes"/>
      <point x="1962" y="-29"/>
      <point x="1970" y="-26"/>
      <point x="1990" y="-21" type="curve"/>
      <point x="2042" y="320" type="line"/>
      <point x="2018" y="322"/>
      <point x="2000" y="322"/>
      <point x="1983" y="322" type="curve"/>
      <point x="1902" y="254"/>
      <point x="1897" y="116"/>
      <point x="1782" y="91" type="curve" smooth="yes"/>
      <point x="1726" y="79"/>
      <point x="1666" y="72"/>
      <point x="1601" y="71" type="curve" smooth="yes"/>
      <point x="1466" y="69"/>
      <point x="1331" y="69"/>
      <point x="1195" y="68" type="curve" smooth="yes"/>
      <point x="1180" y="68"/>
      <point x="1176" y="87"/>
      <point x="1176" y="105" type="curve" smooth="yes"/>
      <point x="1177" y="262"/>
      <point x="1177" y="433"/>
      <point x="1177" y="642" type="curve"/>
      <point x="1539" y="642" type="line" smooth="yes"/>
      <point x="1584" y="642"/>
      <point x="1623" y="636"/>
      <point x="1658" y="628" type="curve" smooth="yes"/>
      <point x="1722" y="614"/>
      <point x="1749" y="521"/>
      <point x="1777" y="457" type="curve"/>
      <point x="1798" y="457"/>
      <point x="1819" y="458"/>
      <point x="1840" y="460" type="curve"/>
      <point x="1840" y="894" type="line"/>
      <point x="1816" y="896"/>
      <point x="1796" y="896"/>
      <point x="1777" y="896" type="curve"/>
      <point x="1748" y="837"/>
      <point x="1732" y="748"/>
      <point x="1665" y="732" type="curve"/>
      <point x="1534" y="718"/>
      <point x="1344" y="719"/>
    </contour>
  </outline>
</glyph>
<glyph name="circumflex" format="1">
  <advance width="1032"/>
  <unicode hex="02C6"/>
  <outline>
    <contour>
      <point x="508" y="900" type="move" name="_top"/>
    </contour>
    <contour>
      <point x="508" y="1350" type="curve"/>
      <point x="544" y="1311"/>
      <point x="761" y="1068"/>
      <point x="786" y="1068" type="curve" smooth="yes"/>
      <point x="796" y="1068"/>
      <point x="803" y="1075"/>
      <point x="803" y="1085" type="curve" smooth="yes"/>
      <point x="803" y="1096"/>
      <point x="615" y="1466"/>
      <point x="593" y="1507" type="curve" smooth="yes"/>
      <point x="576" y="1538"/>
      <point x="547" y="1571"/>
      <point x="508" y="1571" type="curve" smooth="yes"/>
      <point x="469" y="1571"/>
      <point x="440" y="1539"/>
      <point x="422" y="1507" type="curve" smooth="yes"/>
      <point x="400" y="1467"/>
      <point x="213" y="1096"/>
      <point x="213" y="1085" type="curve" smooth="yes"/>
      <point x="213" y="1075"/>
      <point x="220" y="1068"/>
      <point x="230" y="1068" type="curve" smooth="yes"/>
      <point x="255" y="1068"/>
      <point x="472" y="1311"/>
    </contour>
  </outline>
</glyph>
<glyph name="breve" format="1">
  <advance width="691"/>
  <unicode hex="02D8"/>
  <outline>
    <contour>
      <point x="346" y="900" type="move" name="_top"/>
    </contour>
    <contour>
      <point x="120" y="1282" type="line"/>
      <point x="124" y="1128"/>
      <point x="209" y="1035"/>
      <point x="367" y="1035" type="curve" smooth="yes"/>
      <point x="520" y="1035"/>
      <point x="613" y="1130"/>
      <point x="613" y="1282" type="curve"/>
      <point x="555" y="1282" type="line"/>
      <point x="531" y="1196"/>
      <point x="448" y="1166"/>
      <point x="367" y="1166" type="curve" smooth="yes"/>
      <point x="279" y="1166"/>
      <point x="214" y="1199"/>
      <point x="177" y="1282" type="curve"/>
    </contour>
  </outline>
</glyph>
<glyph name="dotaccent" format="1">
  <advance width="691"/>
  <unicode hex="02D9"/>
  <outline>
    <contour>
      <point x="345" y="900" type="move" name="_top"/>
    </contour>
    <contour>
      <point x="340" y="1274" type="curve" smooth="yes"/>
      <point x="281" y="1274"/>
      <point x="231" y="1225"/>
      <point x="231" y="1165" type="curve" smooth="yes"/>
      <point x="231" y="1104"/>
      <point x="281" y="1056"/>
      <point x="340" y="1056" type="curve" smooth="yes"/>
      <point x="401" y="1056"/>
      <point x="450" y="1104"/>
      <point x="450" y="1165" type="curve" smooth="yes"/>
      <point x="450" y="1225"/>
      <point x="401" y="1274"/>
    </contour>
  </outline>
</glyph>
<glyph name="ring" format="1">
  <advance width="691"/>
  <unicode hex="02DA"/>
  <outline>
    <contour>
      <point x="346" y="900" type="move" name="_top"/>
    </contour>
    <contour>
      <point x="346" y="1421" type="curve" smooth="yes"/>
      <point x="413" y="1421"/>
      <point x="466" y="1366"/>
      <point x="466" y="1303" type="curve" smooth="yes"/>
      <point x="466" y="1239"/>
      <point x="413" y="1184"/>
      <point x="346" y="1184" type="curve" smooth="yes"/>
      <point x="279" y="1184"/>
      <point x="227" y="1238"/>
      <point x="227" y="1303" type="curve" smooth="yes"/>
      <point x="227" y="1366"/>
      <point x="279" y="1421"/>
    </contour>
    <contour>
      <point x="346" y="1494" type="curve" smooth="yes"/>
      <point x="237" y="1494"/>
      <point x="151" y="1406"/>
      <point x="151" y="1303" type="curve" smooth="yes"/>
      <point x="151" y="1196"/>
      <point x="237" y="1110"/>
      <point x="346" y="1110" type="curve" smooth="yes"/>
      <point x="455" y="1110"/>
      <point x="541" y="1199"/>
      <point x="541" y="1303" type="curve" smooth="yes"/>
      <point x="541" y="1406"/>
      <point x="455" y="1494"/>
    </contour>
  </outline>
</glyph>
<glyph name="dotaccentcmb" format="1">
  <advance width="691"/>
  <unicode hex="0307"/>
  <outline>
    <contour>
      <point x="345" y="900" type="move" name="_top"/>
    </contour>
    <contour>
      <point x="345" y="900" type="curve" smooth="yes"/>
      <point x="286" y="900"/>
      <point x="236" y="851"/>
      <point x="236" y="791" type="curve" smooth="yes"/>
      <point x="236" y="730"/>
      <point x="286" y="682"/>
      <point x="345" y="682" type="curve" smooth="yes"/>
      <point x="406" y="682"/>
      <point x="455" y="730"/>
      <point x="455" y="791" type="curve" smooth="yes"/>
      <point x="455" y="851"/>
      <point x="406" y="900"/>
    </contour>
  </outline>
</glyph>
<glyph name="uni0311" format="1">
  <advance width="691"/>
  <unicode hex="0311"/>
  <outline>
    <contour>
      <point x="346" y="900" type="move" name="_top"/>
    </contour>
    <contour>
      <point x="74" y="997" type="curve"/>
      <point x="131" y="997" type="line"/>
      <point x="168" y="1080"/>
      <point x="233" y="1113"/>
      <point x="321" y="1113" type="curve" smooth="yes"/>
      <point x="402" y="1113"/>
      <point x="485" y="1083"/>
      <point x="509" y="997" type="curve"/>
      <point x="567" y="997" type="line"/>
      <point x="567" y="1149"/>
      <point x="474" y="1244"/>
      <point x="321" y="1244" type="curve" smooth="yes"/>
      <point x="163" y="1244"/>
      <point x="78" y="1151"/>
    </contour>
  </outline>
</glyph>
<glyph name="ellipsis" format="1">
  <advance width="1808"/>
  <unicode hex="2026"/>
  <outline>
    <contour>
      <point x="303" y="251" type="curve" smooth="yes"/>
      <point x="227" y="251"/>
      <point x="166" y="189"/>
      <point x="166" y="116" type="curve" smooth="yes"/>
      <point x="166" y="42"/>
      <point x="227" y="-20"/>
      <point x="303" y="-20" type="curve" smooth="yes"/>
      <point x="379" y="-20"/>
      <point x="441" y="44"/>
      <point x="441" y="116" type="curve" smooth="yes"/>
      <point x="441" y="189"/>
      <point x="379" y="251"/>
    </contour>
    <contour>
      <point x="905" y="251" type="curve" smooth="yes"/>
      <point x="829" y="251"/>
      <point x="768" y="189"/>
      <point x="768" y="116" type="curve" smooth="yes"/>
      <point x="768" y="42"/>
      <point x="829" y="-20"/>
      <point x="905" y="-20" type="curve" smooth="yes"/>
      <point x="981" y="-20"/>
      <point x="1043" y="44"/>
      <point x="1043" y="116" type="curve" smooth="yes"/>
      <point x="1043" y="189"/>
      <point x="981" y="251"/>
    </contour>
    <contour>
      <point x="1506" y="251" type="curve" smooth="yes"/>
      <point x="1430" y="251"/>
      <point x="1369" y="189"/>
      <point x="1369" y="116" type="curve" smooth="yes"/>
      <point x="1369" y="42"/>
      <point x="1430" y="-20"/>
      <point x="1506" y="-20" type="curve" smooth="yes"/>
      <point x="1583" y="-20"/>
      <point x="1644" y="44"/>
      <point x="1644" y="116" type="curve" smooth="yes"/>
      <point x="1644" y="189"/>
      <point x="1583" y="251"/>
    </contour>
  </outline>
</glyph>
<glyph name="guilsinglleft" format="1">
  <advance width="539"/>
  <unicode hex="2039"/>
  <outline>
    <contour>
      <point x="427" y="872" type="line"/>
      <point x="437" y="893"/>
      <point x="453" y="925"/>
      <point x="460" y="946" type="curve"/>
      <point x="451" y="959"/>
      <point x="435" y="972"/>
      <point x="406" y="972" type="curve"/>
      <point x="393" y="957"/>
      <point x="374" y="933"/>
      <point x="356" y="910" type="curve" smooth="yes"/>
      <point x="56" y="532" type="line"/>
      <point x="350" y="149" type="line" smooth="yes"/>
      <point x="373" y="119"/>
      <point x="389" y="103"/>
      <point x="411" y="88" type="curve"/>
      <point x="432" y="88"/>
      <point x="443" y="99"/>
      <point x="452" y="110" type="curve"/>
      <point x="445" y="136"/>
      <point x="436" y="159"/>
      <point x="422" y="185" type="curve" smooth="yes"/>
      <point x="238" y="532" type="line"/>
    </contour>
  </outline>
</glyph>
<glyph name="ff" format="1">
  <advance width="1232"/>
  <outline>
    <contour>
      <point x="1196" y="818" type="line"/>
      <point x="1196" y="899" type="line"/>
      <point x="966" y="899" type="line"/>
      <point x="966" y="1021" type="line" smooth="yes"/>
      <point x="966" y="1249"/>
      <point x="1007" y="1302"/>
      <point x="1093" y="1302" type="curve" smooth="yes"/>
      <point x="1198" y="1302"/>
      <point x="1176" y="1140"/>
      <point x="1284" y="1140" type="curve" smooth="yes"/>
      <point x="1344" y="1140"/>
      <point x="1378" y="1179"/>
      <point x="1378" y="1230" type="curve" smooth="yes"/>
      <point x="1378" y="1323"/>
      <point x="1269" y="1374"/>
      <point x="1136" y="1374" type="curve" smooth="yes"/>
      <point x="1035" y="1374"/>
      <point x="954" y="1345"/>
      <point x="894" y="1291" type="curve"/>
      <point x="846" y="1345"/>
      <point x="733" y="1374"/>
      <point x="607" y="1374" type="curve" smooth="yes"/>
      <point x="357" y="1374"/>
      <point x="212" y="1231"/>
      <point x="207" y="971" type="curve" smooth="yes"/>
      <point x="206" y="901"/>
      <point x="186" y="899"/>
      <point x="122" y="899" type="curve" smooth="yes"/>
      <point x="53" y="899" type="line"/>
      <point x="53" y="818" type="line"/>
      <point x="211" y="818" type="line"/>
      <point x="211" y="215" type="line" smooth="yes"/>
      <point x="211" y="103"/>
      <point x="155" y="60"/>
      <point x="46" y="50" type="curve"/>
      <point x="46" y="35"/>
      <point x="47" y="19"/>
      <point x="48" y="0" type="curve"/>
      <point x="574" y="0" type="line"/>
      <point x="575" y="19"/>
      <point x="575" y="35"/>
      <point x="575" y="50" type="curve"/>
      <point x="425" y="56"/>
      <point x="397" y="121"/>
      <point x="397" y="259" type="curve" smooth="yes"/>
      <point x="397" y="818" type="line"/>
      <point x="780" y="818" type="line"/>
      <point x="780" y="215" type="line" smooth="yes"/>
      <point x="780" y="115"/>
      <point x="734" y="58"/>
      <point x="635" y="50" type="curve"/>
      <point x="635" y="35"/>
      <point x="636" y="19"/>
      <point x="637" y="0" type="curve"/>
      <point x="1163" y="0" type="line"/>
      <point x="1164" y="19"/>
      <point x="1164" y="35"/>
      <point x="1164" y="50" type="curve"/>
      <point x="1003" y="57"/>
      <point x="966" y="109"/>
      <point x="966" y="259" type="curve" smooth="yes"/>
      <point x="966" y="818" type="line"/>
    </contour>
    <contour>
      <point x="397" y="899" type="line"/>
      <point x="397" y="1021" type="line" smooth="yes"/>
      <point x="397" y="1249"/>
      <point x="450" y="1302"/>
      <point x="564" y="1302" type="curve" smooth="yes"/>
      <point x="710" y="1302"/>
      <point x="776" y="1226"/>
      <point x="812" y="1161" type="curve"/>
      <point x="785" y="1071"/>
      <point x="780" y="1028"/>
      <point x="780" y="899" type="curve"/>
    </contour>
  </outline>
</glyph>
<glyph name="ffl" format="1">
  <advance width="1806"/>
  <outline>
    <contour>
      <point x="1196" y="818" type="line"/>
      <point x="1196" y="899" type="line"/>
      <point x="966" y="899" type="line"/>
      <point x="966" y="1021" type="line" smooth="yes"/>
      <point x="966" y="1249"/>
      <point x="1019" y="1302"/>
      <point x="1133" y="1302" type="curve" smooth="yes"/>
      <point x="1293" y="1302"/>
      <point x="1417" y="1229"/>
      <point x="1417" y="1190" type="curve" smooth="yes"/>
      <point x="1417" y="870"/>
      <point x="1418" y="547"/>
      <point x="1418" y="228" type="curve" smooth="yes"/>
      <point x="1418" y="116"/>
      <point x="1367" y="68"/>
      <point x="1258" y="50" type="curve"/>
      <point x="1258" y="34"/>
      <point x="1259" y="0"/>
      <point x="1259" y="0" type="curve"/>
      <point x="1751" y="0" type="line"/>
      <point x="1751" y="0"/>
      <point x="1753" y="33"/>
      <point x="1753" y="50" type="curve"/>
      <point x="1642" y="62"/>
      <point x="1604" y="126"/>
      <point x="1604" y="234" type="curve" smooth="yes"/>
      <point x="1604" y="1200" type="line" smooth="yes"/>
      <point x="1604" y="1311"/>
      <point x="1384" y="1374"/>
      <point x="1136" y="1374" type="curve" smooth="yes"/>
      <point x="1030" y="1374"/>
      <point x="945" y="1342"/>
      <point x="884" y="1282" type="curve"/>
      <point x="846" y="1341"/>
      <point x="740" y="1374"/>
      <point x="617" y="1374" type="curve" smooth="yes"/>
      <point x="361" y="1374"/>
      <point x="212" y="1231"/>
      <point x="207" y="971" type="curve" smooth="yes"/>
      <point x="206" y="901"/>
      <point x="186" y="899"/>
      <point x="122" y="899" type="curve" smooth="yes"/>
      <point x="53" y="899" type="line"/>
      <point x="53" y="818" type="line"/>
      <point x="211" y="818" type="line"/>
      <point x="211" y="215" type="line" smooth="yes"/>
      <point x="211" y="103"/>
      <point x="155" y="60"/>
      <point x="46" y="50" type="curve"/>
      <point x="46" y="35"/>
      <point x="47" y="19"/>
      <point x="48" y="0" type="curve"/>
      <point x="564" y="0" type="line"/>
      <point x="565" y="19"/>
      <point x="565" y="35"/>
      <point x="565" y="50" type="curve"/>
      <point x="421" y="55"/>
      <point x="397" y="128"/>
      <point x="397" y="259" type="curve" smooth="yes"/>
      <point x="397" y="818" type="line"/>
      <point x="780" y="818" type="line"/>
      <point x="780" y="215" type="line" smooth="yes"/>
      <point x="780" y="115"/>
      <point x="734" y="58"/>
      <point x="635" y="50" type="curve"/>
      <point x="635" y="35"/>
      <point x="636" y="19"/>
      <point x="637" y="0" type="curve"/>
      <point x="1163" y="0" type="line"/>
      <point x="1164" y="19"/>
      <point x="1164" y="35"/>
      <point x="1164" y="50" type="curve"/>
      <point x="1003" y="57"/>
      <point x="966" y="109"/>
      <point x="966" y="259" type="curve" smooth="yes"/>
      <point x="966" y="818" type="line"/>
    </contour>
    <contour>
      <point x="397" y="899" type="line"/>
      <point x="397" y="1021" type="line" smooth="yes"/>
      <point x="397" y="1389"/>
      <point x="676" y="1357"/>
      <point x="802" y="1142" type="curve"/>
      <point x="786" y="1092"/>
      <point x="780" y="993"/>
      <point x="780" y="899" type="curve"/>
    </contour>
  </outline>
</glyph>
<glyph name="foundryicon" format="1">
  <advance width="1251"/>
  <outline>
    <contour>
      <point x="604" y="375" type="line" smooth="yes"/>
      <point x="725" y="375"/>
      <point x="887" y="72"/>
      <point x="942" y="72" type="curve" smooth="yes"/>
      <point x="962" y="72"/>
      <point x="975" y="86"/>
      <point x="975" y="106" type="curve" smooth="yes"/>
      <point x="975" y="245"/>
      <point x="881" y="384"/>
      <point x="881" y="522" type="curve"/>
      <point x="985" y="573"/>
      <point x="1042" y="664"/>
      <point x="1128" y="735" type="curve" smooth="yes"/>
      <point x="1143" y="747"/>
      <point x="1225" y="793"/>
      <point x="1225" y="807" type="curve" smooth="yes"/>
      <point x="1225" y="841"/>
      <point x="1172" y="849"/>
      <point x="1115" y="849" type="curve" smooth="yes"/>
      <point x="1061" y="849"/>
      <point x="1003" y="842"/>
      <point x="980" y="842" type="curve" smooth="yes"/>
      <point x="913" y="842"/>
      <point x="846" y="842"/>
      <point x="779" y="848" type="curve"/>
      <point x="754" y="957"/>
      <point x="715" y="1076"/>
      <point x="715" y="1188" type="curve" smooth="yes"/>
      <point x="715" y="1207"/>
      <point x="685" y="1235"/>
      <point x="666" y="1235" type="curve" smooth="yes"/>
      <point x="617" y="1235"/>
      <point x="579" y="1115"/>
      <point x="563" y="1075" type="curve" smooth="yes"/>
      <point x="469" y="840" type="line"/>
      <point x="279" y="848" type="line" smooth="yes"/>
      <point x="206" y="851"/>
      <point x="129" y="870"/>
      <point x="57" y="870" type="curve" smooth="yes"/>
      <point x="38" y="870"/>
      <point x="18" y="863"/>
      <point x="18" y="840" type="curve" smooth="yes"/>
      <point x="18" y="792"/>
      <point x="105" y="762"/>
      <point x="137" y="735" type="curve" smooth="yes"/>
      <point x="166" y="711"/>
      <point x="356" y="545"/>
      <point x="356" y="520" type="curve" smooth="yes"/>
      <point x="356" y="467"/>
      <point x="232" y="219"/>
      <point x="232" y="141" type="curve" smooth="yes"/>
      <point x="232" y="119"/>
      <point x="249" y="115"/>
      <point x="267" y="115" type="curve" smooth="yes"/>
      <point x="276" y="115"/>
      <point x="562" y="350"/>
      <point x="592" y="375" type="curve"/>
    </contour>
  </outline>
</glyph>
<glyph name="onesuperior" format="1">
  <advance width="610"/>
  <outline>
    <contour>
      <point x="391" y="1187" type="line" smooth="yes"/>
      <point x="391" y="1200"/>
      <point x="394" y="1233"/>
      <point x="394" y="1278" type="curve" smooth="yes"/>
      <point x="394" y="1287"/>
      <point x="392" y="1291"/>
      <point x="388" y="1291" type="curve"/>
      <point x="78" y="1206" type="line"/>
      <point x="75" y="1201"/>
      <point x="74" y="1197"/>
      <point x="74" y="1193" type="curve" smooth="yes"/>
      <point x="74" y="1151"/>
      <point x="227" y="1181"/>
      <point x="227" y="1103" type="curve" smooth="yes"/>
      <point x="227" y="491" type="line" smooth="yes"/>
      <point x="227" y="411"/>
      <point x="75" y="449"/>
      <point x="75" y="405" type="curve" smooth="yes"/>
      <point x="75" y="404"/>
      <point x="76" y="400"/>
      <point x="78" y="392" type="curve"/>
      <point x="544" y="392" type="line"/>
      <point x="547" y="399"/>
      <point x="548" y="403"/>
      <point x="548" y="407" type="curve" smooth="yes"/>
      <point x="548" y="455"/>
      <point x="391" y="399"/>
      <point x="391" y="487" type="curve" smooth="yes"/>
    </contour>
  </outline>
</glyph>
<glyph name="threesuperior" format="1">
  <advance width="762"/>
  <outline>
    <contour>
      <point x="404" y="917" type="curve"/>
      <point x="512" y="928"/>
      <point x="602" y="1005"/>
      <point x="602" y="1118" type="curve" smooth="yes"/>
      <point x="602" y="1235"/>
      <point x="505" y="1294"/>
      <point x="397" y="1294" type="curve" smooth="yes"/>
      <point x="309" y="1294"/>
      <point x="204" y="1254"/>
      <point x="152" y="1180" type="curve"/>
      <point x="151" y="1176"/>
      <point x="149" y="1172"/>
      <point x="149" y="1168" type="curve" smooth="yes"/>
      <point x="149" y="1159"/>
      <point x="152" y="1149"/>
      <point x="162" y="1149" type="curve" smooth="yes"/>
      <point x="238" y="1149"/>
      <point x="293" y="1224"/>
      <point x="379" y="1224" type="curve" smooth="yes"/>
      <point x="452" y="1224"/>
      <point x="484" y="1188"/>
      <point x="484" y="1117" type="curve" smooth="yes"/>
      <point x="484" y="1018"/>
      <point x="314" y="936"/>
      <point x="233" y="897" type="curve" smooth="yes"/>
      <point x="230" y="895"/>
      <point x="227" y="893"/>
      <point x="224" y="892" type="curve"/>
      <point x="258" y="854" type="line"/>
      <point x="282" y="859"/>
      <point x="307" y="863"/>
      <point x="332" y="863" type="curve" smooth="yes"/>
      <point x="464" y="863"/>
      <point x="518" y="755"/>
      <point x="518" y="637" type="curve" smooth="yes"/>
      <point x="518" y="516"/>
      <point x="446" y="414"/>
      <point x="317" y="414" type="curve" smooth="yes"/>
      <point x="288" y="414"/>
      <point x="197" y="432"/>
      <point x="197" y="471" type="curve" smooth="yes"/>
      <point x="197" y="491"/>
      <point x="212" y="510"/>
      <point x="212" y="533" type="curve" smooth="yes"/>
      <point x="212" y="568"/>
      <point x="178" y="600"/>
      <point x="144" y="600" type="curve" smooth="yes"/>
      <point x="102" y="600"/>
      <point x="66" y="563"/>
      <point x="66" y="521" type="curve" smooth="yes"/>
      <point x="66" y="400"/>
      <point x="243" y="372"/>
      <point x="335" y="372" type="curve" smooth="yes"/>
      <point x="494" y="372"/>
      <point x="683" y="457"/>
      <point x="683" y="640" type="curve" smooth="yes"/>
      <point x="683" y="806"/>
      <point x="569" y="917"/>
    </contour>
  </outline>
</glyph>
<glyph name="tt" format="1">
  <advance width="1226"/>
  <outline>
    <contour>
      <point x="1178" y="815" type="line"/>
      <point x="1178" y="899" type="line"/>
      <point x="927" y="899" type="line"/>
      <point x="927" y="1110" type="line" smooth="yes"/>
      <point x="927" y="1139"/>
      <point x="916" y="1149"/>
      <point x="904" y="1149" type="curve" smooth="yes"/>
      <point x="892" y="1149"/>
      <point x="881" y="1141"/>
      <point x="856" y="1101" type="curve" smooth="yes"/>
      <point x="826" y="1023"/>
      <point x="795" y="953"/>
      <point x="743" y="899" type="curve"/>
      <point x="365" y="899" type="line"/>
      <point x="365" y="1110" type="line" smooth="yes"/>
      <point x="365" y="1139"/>
      <point x="354" y="1149"/>
      <point x="342" y="1149" type="curve" smooth="yes"/>
      <point x="330" y="1149"/>
      <point x="319" y="1141"/>
      <point x="294" y="1101" type="curve" smooth="yes"/>
      <point x="230" y="1002"/>
      <point x="175" y="917"/>
      <point x="31" y="859" type="curve"/>
      <point x="31" y="815" type="line"/>
      <point x="180" y="815" type="line"/>
      <point x="180" y="317" type="line" smooth="yes"/>
      <point x="180" y="66"/>
      <point x="227" y="-20"/>
      <point x="419" y="-20" type="curve" smooth="yes"/>
      <point x="509" y="-20"/>
      <point x="567" y="12"/>
      <point x="607" y="35" type="curve"/>
      <point x="599" y="108" type="line"/>
      <point x="584" y="101"/>
      <point x="541" y="86"/>
      <point x="499" y="86" type="curve" smooth="yes"/>
      <point x="371" y="86"/>
      <point x="367" y="135"/>
      <point x="367" y="314" type="curve" smooth="yes"/>
      <point x="367" y="815" type="line"/>
      <point x="742" y="815" type="line"/>
      <point x="742" y="317" type="line" smooth="yes"/>
      <point x="742" y="66"/>
      <point x="789" y="-20"/>
      <point x="981" y="-20" type="curve" smooth="yes"/>
      <point x="1091" y="-20"/>
      <point x="1161" y="12"/>
      <point x="1209" y="35" type="curve"/>
      <point x="1201" y="108" type="line"/>
      <point x="1178" y="101"/>
      <point x="1119" y="86"/>
      <point x="1061" y="86" type="curve" smooth="yes"/>
      <point x="933" y="86"/>
      <point x="929" y="135"/>
      <point x="929" y="314" type="curve" smooth="yes"/>
      <point x="929" y="815" type="line"/>
    </contour>
  </outline>
</glyph>
<glyph name="twosuperior" format="1">
  <advance width="766"/>
  <outline>
    <contour>
      <point x="231" y="469" type="line"/>
      <point x="361" y="623"/>
      <point x="639" y="836"/>
      <point x="639" y="1050" type="curve" smooth="yes"/>
      <point x="639" y="1226"/>
      <point x="501" y="1298"/>
      <point x="341" y="1298" type="curve" smooth="yes"/>
      <point x="254" y="1298"/>
      <point x="136" y="1257"/>
      <point x="85" y="1182" type="curve"/>
      <point x="84" y="1178"/>
      <point x="82" y="1174"/>
      <point x="82" y="1170" type="curve" smooth="yes"/>
      <point x="82" y="1162"/>
      <point x="88" y="1154"/>
      <point x="95" y="1151" type="curve"/>
      <point x="177" y="1174"/>
      <point x="230" y="1227"/>
      <point x="324" y="1227" type="curve" smooth="yes"/>
      <point x="427" y="1227"/>
      <point x="458" y="1136"/>
      <point x="458" y="1048" type="curve" smooth="yes"/>
      <point x="458" y="824"/>
      <point x="215" y="593"/>
      <point x="89" y="422" type="curve"/>
      <point x="100" y="382" type="line"/>
      <point x="157" y="383"/>
      <point x="215" y="383"/>
      <point x="272" y="383" type="curve" smooth="yes"/>
      <point x="387" y="383"/>
      <point x="502" y="382"/>
      <point x="617" y="382" type="curve"/>
      <point x="631" y="383" type="line"/>
      <point x="648" y="655" type="line"/>
      <point x="644" y="656"/>
      <point x="638" y="658"/>
      <point x="633" y="658" type="curve" smooth="yes"/>
      <point x="575" y="658"/>
      <point x="625" y="503"/>
      <point x="493" y="492" type="curve" smooth="yes"/>
    </contour>
  </outline>
</glyph>
